<?xml version="1.0" encoding="utf-8"?>
<!-- Generator: Adobe Illustrator 16.0.0, SVG Export Plug-In . SVG Version: 6.00 Build 0)  -->
<!DOCTYPE svg PUBLIC "-//W3C//DTD SVG 1.1//EN" "http://www.w3.org/Graphics/SVG/1.1/DTD/svg11.dtd">
<svg version="1.1" id="Layer_1" xmlns="http://www.w3.org/2000/svg" xmlns:xlink="http://www.w3.org/1999/xlink" x="0px" y="0px"
	 width="42px" height="42px" viewBox="0 0 42 42" enable-background="new 0 0 42 42" xml:space="preserve">
<g>
	<path fill-rule="evenodd" clip-rule="evenodd" fill="none" d="M0.281,24.174c0-5.348,0-10.699,0-16.05c13.811,0,27.622,0,41.438,0
		c0,8.302,0,16.606,0,24.917c-13.81,0-27.623,0-41.438,0c0-2.558,0-5.119,0-7.683c0.013,0.054,0.032,0.107,0.038,0.161
		c0.178,1.754,0.812,3.309,1.999,4.624c2.199,2.439,4.937,3.38,8.118,2.643c3.234-0.754,5.241-2.891,6.146-6.068
		c0.117-0.409,0.159-0.839,0.238-1.272c0.233,0,0.48-0.015,0.723,0.007c0.079,0.007,0.167,0.092,0.224,0.161
		c0.179,0.223,0.352,0.451,0.515,0.688c0.043,0.064,0.078,0.167,0.059,0.234c-0.211,0.709-0.437,1.411-0.651,2.117
		c-0.048,0.16-0.142,0.231-0.305,0.229c-0.173-0.003-0.345,0-0.523,0c0,0.481,0,0.921,0,1.365c0.922,0,1.832,0,2.744,0
		c0-0.458,0-0.897,0-1.342c-0.171-0.017-0.328-0.033-0.509-0.054c0.024-0.1,0.037-0.174,0.058-0.246
		c0.138-0.464,0.299-0.925,0.41-1.395c0.065-0.28,0.205-0.401,0.477-0.461c0.567-0.123,1.014-0.443,1.32-0.941
		c0.374-0.607,0.399-1.244,0.147-1.901c-0.043-0.115-0.072-0.206,0.031-0.322c2.619-2.984,5.233-5.973,7.847-8.961
		c0.046-0.052,0.077-0.117,0.116-0.181c0.051,0.059,0.064,0.069,0.067,0.081c0.247,0.791,0.496,1.582,0.734,2.376
		c0.017,0.056-0.036,0.167-0.089,0.203c-0.198,0.132-0.408,0.249-0.619,0.362c-2.028,1.086-3.437,2.727-4.077,4.921
		c-0.838,2.863-0.304,5.506,1.691,7.762c2.136,2.418,4.836,3.321,7.994,2.666c3.935-0.818,7.244-4.631,6.358-9.661
		c-0.402-2.286-1.685-4.071-3.626-5.357c-1.39-0.917-2.938-1.324-4.592-1.35c-0.257-0.004-0.271,0.017-0.201,0.265
		c0.088,0.312,0.182,0.621,0.263,0.934c0.028,0.111,0.081,0.157,0.196,0.172c0.434,0.056,0.868,0.105,1.294,0.194
		c3.529,0.734,6.148,4.237,5.252,8.275c-0.734,3.301-3.619,5.22-6.205,5.313c-1.408,0.047-2.752-0.137-3.968-0.899
		c-2.427-1.527-3.64-3.721-3.394-6.584c0.222-2.615,1.663-4.45,3.992-5.61c0.061-0.03,0.128-0.046,0.211-0.075
		c0.034,0.099,0.063,0.183,0.09,0.269c0.519,1.693,1.032,3.389,1.558,5.08c0.141,0.447,0.306,0.89,0.498,1.32
		c0.159,0.356,0.497,0.439,0.825,0.224c0.358-0.233,0.413-0.392,0.305-0.751c-1.47-4.872-2.932-9.745-4.396-14.619
		c-0.031-0.105-0.058-0.212-0.103-0.373c0.29-0.012,0.546-0.034,0.801-0.032c1.092,0.012,2.182,0.026,3.272,0.052
		c0.278,0.007,0.534,0.104,0.739,0.313c0.507,0.515,0.573,1.208,0.173,1.811c-0.094,0.14-0.195,0.277-0.264,0.43
		c-0.132,0.292-0.061,0.53,0.195,0.751c0.232,0.201,0.501,0.236,0.755,0.055c0.168-0.121,0.326-0.273,0.445-0.442
		c0.607-0.873,0.677-1.837,0.239-2.767c-0.458-0.971-1.251-1.546-2.39-1.548c-1.67-0.004-3.339-0.033-5.006-0.05
		c-0.332-0.003-0.668,0.42-0.579,0.741c0.201,0.739,0.412,1.476,0.623,2.212c0.104,0.363,0.218,0.723,0.336,1.114
		c-0.228,0.015-0.431,0.04-0.631,0.041c-3.852,0.017-7.702,0.029-11.554,0.043c-0.015,0-0.032,0.005-0.041-0.001
		c-0.055-0.038-0.143-0.068-0.159-0.119c-0.145-0.477-0.275-0.959-0.417-1.438c-0.035-0.118-0.009-0.185,0.108-0.227
		c0.165-0.062,0.324-0.138,0.489-0.198c0.85-0.315,1.703-0.621,2.55-0.943c0.306-0.116,0.408-0.346,0.343-0.659
		c-0.063-0.296-0.35-0.559-0.614-0.559c-2.316,0-4.633,0-6.949,0c-0.425,0-0.744,0.38-0.688,0.808
		c0.027,0.205,0.143,0.331,0.315,0.417c0.945,0.481,1.89,0.965,2.84,1.437c0.14,0.07,0.213,0.156,0.256,0.303
		c0.153,0.518,0.315,1.035,0.486,1.548c0.044,0.136,0.023,0.236-0.049,0.352c-1.01,1.592-2.017,3.186-3.023,4.78
		c-1.374,2.178-2.748,4.355-4.122,6.534c-0.209,0.332-0.197,0.664,0.091,0.887c0.141,0.107,0.358,0.158,0.544,0.165
		c0.986,0.025,1.972,0.029,2.957,0.041c1.176,0.015,2.351,0.035,3.526,0.047c0.18,0.002,0.249,0.071,0.199,0.242
		c-0.189,0.64-0.302,1.315-0.586,1.91c-1.401,2.929-4.289,4.404-7.345,3.9c-3.811-0.63-6.568-4.352-5.548-8.48
		c0.904-3.658,4.561-5.866,8.238-5.024c0.077,0.017,0.208,0,0.245-0.052c0.255-0.348,0.491-0.708,0.753-1.094
		c-0.167-0.063-0.267-0.121-0.374-0.138c-0.52-0.085-1.038-0.188-1.561-0.229c-0.802-0.063-1.618-0.08-2.396,0.125
		c-3.299,0.872-5.433,2.94-6.291,6.271C0.389,23.321,0.351,23.753,0.281,24.174z"/>
	<path fill-rule="evenodd" clip-rule="evenodd" d="M0.281,24.174c0.069-0.421,0.107-0.853,0.214-1.264
		c0.857-3.33,2.991-5.399,6.291-6.271c0.777-0.206,1.593-0.188,2.396-0.125c0.523,0.042,1.041,0.144,1.561,0.229
		c0.107,0.017,0.207,0.075,0.374,0.138c-0.262,0.386-0.499,0.747-0.753,1.094c-0.037,0.052-0.168,0.068-0.245,0.052
		c-3.677-0.841-7.334,1.367-8.238,5.024c-1.021,4.129,1.737,7.851,5.548,8.48c3.056,0.504,5.944-0.972,7.345-3.9
		c0.285-0.595,0.397-1.271,0.586-1.91c0.05-0.171-0.019-0.24-0.199-0.242c-1.175-0.012-2.35-0.032-3.526-0.047
		c-0.985-0.012-1.971-0.016-2.957-0.041c-0.186-0.007-0.403-0.058-0.544-0.165c-0.288-0.223-0.3-0.555-0.091-0.887
		c1.374-2.179,2.748-4.356,4.122-6.534c1.007-1.594,2.014-3.188,3.023-4.78c0.072-0.116,0.093-0.216,0.049-0.352
		c-0.171-0.514-0.333-1.03-0.486-1.548c-0.043-0.146-0.117-0.233-0.256-0.303c-0.95-0.472-1.896-0.956-2.84-1.437
		c-0.172-0.087-0.288-0.212-0.315-0.417c-0.055-0.427,0.264-0.808,0.688-0.808c2.316,0,4.633,0,6.949,0
		c0.264,0,0.551,0.263,0.614,0.559c0.065,0.313-0.037,0.543-0.343,0.659c-0.848,0.323-1.701,0.628-2.55,0.943
		c-0.165,0.061-0.324,0.137-0.489,0.198c-0.117,0.042-0.143,0.109-0.108,0.227c0.141,0.479,0.272,0.96,0.417,1.438
		c0.016,0.051,0.104,0.081,0.159,0.119c0.009,0.006,0.026,0.001,0.041,0.001c3.852-0.015,7.703-0.027,11.554-0.043
		c0.2-0.001,0.403-0.025,0.631-0.041c-0.118-0.391-0.232-0.75-0.336-1.114c-0.211-0.736-0.422-1.473-0.623-2.212
		c-0.089-0.321,0.247-0.744,0.579-0.741c1.667,0.017,3.336,0.046,5.006,0.05c1.139,0.002,1.932,0.578,2.39,1.548
		c0.438,0.93,0.368,1.894-0.239,2.767c-0.119,0.169-0.277,0.322-0.445,0.442c-0.254,0.182-0.522,0.146-0.755-0.055
		c-0.256-0.222-0.327-0.46-0.195-0.751c0.068-0.153,0.17-0.291,0.264-0.43c0.4-0.603,0.334-1.296-0.173-1.811
		c-0.205-0.209-0.461-0.306-0.739-0.313c-1.091-0.025-2.181-0.04-3.272-0.052c-0.255-0.002-0.511,0.021-0.801,0.032
		c0.045,0.16,0.071,0.267,0.103,0.373c1.464,4.874,2.926,9.747,4.396,14.619c0.108,0.359,0.054,0.518-0.305,0.751
		c-0.328,0.216-0.666,0.133-0.825-0.224c-0.192-0.431-0.357-0.873-0.498-1.32c-0.525-1.691-1.039-3.387-1.558-5.08
		c-0.027-0.086-0.056-0.17-0.09-0.269c-0.083,0.029-0.15,0.045-0.211,0.075c-2.329,1.16-3.771,2.995-3.992,5.61
		c-0.246,2.863,0.967,5.057,3.394,6.584c1.216,0.763,2.56,0.946,3.968,0.899c2.586-0.093,5.471-2.012,6.205-5.313
		c0.896-4.038-1.723-7.541-5.252-8.275c-0.426-0.089-0.86-0.138-1.294-0.194c-0.115-0.016-0.168-0.061-0.196-0.172
		c-0.081-0.313-0.175-0.622-0.263-0.934c-0.069-0.248-0.056-0.269,0.201-0.265c1.654,0.026,3.202,0.433,4.592,1.35
		c1.941,1.286,3.224,3.071,3.626,5.357c0.886,5.03-2.424,8.843-6.358,9.661c-3.158,0.655-5.858-0.248-7.994-2.666
		c-1.995-2.256-2.529-4.898-1.691-7.762c0.641-2.195,2.049-3.835,4.077-4.921c0.211-0.113,0.421-0.229,0.619-0.362
		c0.053-0.036,0.105-0.147,0.089-0.203c-0.238-0.794-0.487-1.585-0.734-2.376c-0.003-0.012-0.017-0.022-0.067-0.081
		c-0.039,0.064-0.07,0.128-0.116,0.181c-2.613,2.988-5.228,5.977-7.847,8.961c-0.103,0.116-0.074,0.207-0.031,0.322
		c0.252,0.657,0.227,1.294-0.147,1.901c-0.306,0.498-0.752,0.818-1.32,0.941c-0.271,0.06-0.412,0.181-0.477,0.461
		c-0.11,0.47-0.271,0.931-0.41,1.395c-0.021,0.072-0.034,0.146-0.058,0.246c0.181,0.021,0.338,0.037,0.509,0.054
		c0,0.444,0,0.884,0,1.342c-0.912,0-1.822,0-2.744,0c0-0.444,0-0.884,0-1.365c0.178,0,0.35-0.003,0.523,0
		c0.163,0.002,0.256-0.069,0.305-0.229c0.215-0.706,0.44-1.408,0.651-2.117c0.02-0.067-0.016-0.17-0.059-0.234
		c-0.163-0.236-0.335-0.465-0.515-0.688c-0.058-0.069-0.145-0.154-0.224-0.161c-0.243-0.021-0.49-0.007-0.723-0.007
		c-0.079,0.434-0.121,0.863-0.238,1.272c-0.904,3.178-2.912,5.314-6.146,6.068c-3.181,0.737-5.919-0.203-8.118-2.643
		c-1.187-1.315-1.821-2.87-1.999-4.624c-0.005-0.054-0.025-0.107-0.038-0.161C0.281,24.964,0.281,24.571,0.281,24.174z
		 M28.255,13.739c-3.775-0.068-7.485-0.072-11.227,0c0.035,0.136,0.057,0.237,0.088,0.335c0.807,2.677,1.622,5.353,2.412,8.034
		c0.113,0.382,0.299,0.596,0.683,0.665c0.124,0.021,0.203,0.012,0.289-0.089c2.48-2.86,4.964-5.719,7.445-8.577
		C28.036,14.004,28.121,13.896,28.255,13.739z M12.798,19.384c-0.988,1.558-1.964,3.098-2.958,4.665c0.096,0,0.146,0,0.194,0
		c1.598,0,3.195,0.004,4.793-0.002c0.873-0.003,1.745-0.021,2.618-0.045c0.104-0.002,0.238-0.055,0.304-0.131
		c0.189-0.217,0.342-0.463,0.524-0.682c0.083-0.101,0.105-0.179,0.065-0.303c-0.181-0.569-0.349-1.143-0.525-1.713
		c-0.633-2.055-1.268-4.108-1.902-6.162c-0.028-0.088-0.064-0.173-0.118-0.319c-0.765,1.192-1.494,2.333-2.24,3.498
		c1.445,1.194,2.521,2.62,3.019,4.472c-0.43,0-0.829-0.007-1.229,0.003c-0.14,0.004-0.209-0.04-0.268-0.17
		c-0.153-0.347-0.304-0.696-0.494-1.024C14.12,20.676,13.574,19.946,12.798,19.384z M19.618,25.433c0.368,0,0.681-0.323,0.676-0.698
		c-0.006-0.354-0.328-0.682-0.674-0.684c-0.348-0.004-0.696,0.341-0.698,0.688C18.922,25.084,19.271,25.433,19.618,25.433z"/>
	<path fill-rule="evenodd" clip-rule="evenodd" fill="none" d="M28.255,13.739c-0.134,0.158-0.219,0.266-0.31,0.369
		c-2.481,2.858-4.965,5.717-7.445,8.577c-0.086,0.101-0.165,0.109-0.289,0.089c-0.383-0.069-0.57-0.283-0.683-0.665
		c-0.791-2.682-1.605-5.357-2.412-8.034c-0.031-0.099-0.053-0.199-0.088-0.335C20.77,13.667,24.479,13.67,28.255,13.739z
		 M19.634,17.84c0,0.465,0,0.911,0,1.375c0.121,0,0.226-0.003,0.33,0c0.245,0.005,0.256,0.032,0.212,0.278
		c-0.038,0.212-0.1,0.437-0.064,0.641c0.057,0.336,0.183,0.661,0.285,0.989c0.017,0.054,0.057,0.102,0.094,0.164
		c0.062-0.053,0.105-0.087,0.145-0.125c0.498-0.488,0.866-1.052,1.002-1.745c0.033-0.167,0.109-0.221,0.271-0.206
		c0.15,0.014,0.303,0.003,0.452,0.003c0-0.478,0-0.923,0-1.374C21.448,17.84,20.549,17.84,19.634,17.84z"/>
	<path fill-rule="evenodd" clip-rule="evenodd" fill="none" d="M12.798,19.384c0.776,0.562,1.321,1.292,1.784,2.087
		c0.19,0.328,0.341,0.677,0.494,1.024c0.059,0.13,0.128,0.174,0.268,0.17c0.4-0.01,0.799-0.003,1.229-0.003
		c-0.499-1.852-1.574-3.278-3.019-4.472c0.746-1.165,1.475-2.306,2.24-3.498c0.054,0.146,0.09,0.23,0.118,0.319
		c0.634,2.054,1.269,4.107,1.902,6.162c0.177,0.57,0.345,1.144,0.525,1.713c0.04,0.124,0.018,0.202-0.065,0.303
		c-0.182,0.219-0.335,0.465-0.524,0.682c-0.066,0.076-0.2,0.129-0.304,0.131c-0.873,0.024-1.745,0.042-2.618,0.045
		c-1.598,0.006-3.195,0.002-4.793,0.002c-0.048,0-0.098,0-0.194,0C10.834,22.482,11.811,20.942,12.798,19.384z"/>
	<path fill-rule="evenodd" clip-rule="evenodd" fill="none" d="M19.618,25.433c-0.347,0-0.696-0.349-0.696-0.693
		c0.001-0.348,0.35-0.692,0.698-0.688c0.346,0.002,0.668,0.329,0.674,0.684C20.299,25.109,19.986,25.433,19.618,25.433z"/>
	<path fill-rule="evenodd" clip-rule="evenodd" d="M19.634,17.84c0.915,0,1.813,0,2.727,0c0,0.451,0,0.896,0,1.374
		c-0.149,0-0.302,0.011-0.452-0.003c-0.162-0.015-0.238,0.04-0.271,0.206c-0.136,0.693-0.504,1.257-1.002,1.745
		c-0.04,0.038-0.083,0.072-0.145,0.125c-0.037-0.063-0.077-0.11-0.094-0.164c-0.102-0.329-0.228-0.653-0.285-0.989
		c-0.036-0.204,0.026-0.429,0.064-0.641c0.044-0.246,0.033-0.272-0.212-0.278c-0.104-0.003-0.209,0-0.33,0
		C19.634,18.751,19.634,18.305,19.634,17.84z"/>
</g>
</svg>
