<?xml version="1.0" encoding="utf-8"?>
<!-- Generator: Adobe Illustrator 16.0.0, SVG Export Plug-In . SVG Version: 6.00 Build 0)  -->
<!DOCTYPE svg PUBLIC "-//W3C//DTD SVG 1.1//EN" "http://www.w3.org/Graphics/SVG/1.1/DTD/svg11.dtd">
<svg version="1.1" id="Layer_1" xmlns="http://www.w3.org/2000/svg" xmlns:xlink="http://www.w3.org/1999/xlink" x="0px" y="0px"
	 width="1465.573px" height="288.524px" viewBox="0 0 1465.573 288.524" enable-background="new 0 0 1465.573 288.524"
	 xml:space="preserve">
<polygon fill="none" stroke="#000000" stroke-width="15" stroke-miterlimit="10" points="1014.655,39.646 1049.941,111.144 
	1128.844,122.609 1071.749,178.262 1085.228,256.846 1014.655,219.743 944.083,256.846 957.562,178.262 900.467,122.609 
	979.369,111.144 "/>
<polygon fill="none" stroke="#000000" stroke-width="15" stroke-miterlimit="10" points="723.295,39.647 758.581,111.143 
	837.483,122.61 780.389,178.262 793.867,256.846 723.295,219.742 652.723,256.846 666.201,178.262 609.106,122.61 688.009,111.143 
	"/>
<polygon fill="none" stroke="#000000" stroke-width="15" stroke-miterlimit="10" points="434.771,39.646 470.057,111.144 
	548.959,122.609 491.865,178.262 505.343,256.846 434.771,219.743 364.199,256.846 377.677,178.262 320.583,122.609 
	399.485,111.144 "/>
<polygon fill="none" stroke="#000000" stroke-width="15" stroke-miterlimit="10" points="152.361,39.646 187.647,111.144 
	266.549,122.609 209.455,178.262 222.933,256.846 152.361,219.744 81.789,256.846 95.267,178.262 38.172,122.609 117.075,111.144 
	"/>
<polygon fill="none" stroke="#000000" stroke-width="15" stroke-miterlimit="10" points="1302.541,39.646 1337.827,111.144 
	1416.729,122.609 1359.635,178.262 1373.113,256.846 1302.541,219.742 1231.969,256.846 1245.447,178.262 1188.353,122.609 
	1267.255,111.144 "/>
</svg>
