<?xml version="1.0" encoding="utf-8"?>
<!-- Generator: Adobe Illustrator 16.0.0, SVG Export Plug-In . SVG Version: 6.00 Build 0)  -->
<!DOCTYPE svg PUBLIC "-//W3C//DTD SVG 1.1//EN" "http://www.w3.org/Graphics/SVG/1.1/DTD/svg11.dtd">
<svg version="1.1" id="Layer_1" xmlns="http://www.w3.org/2000/svg" xmlns:xlink="http://www.w3.org/1999/xlink" x="0px" y="0px"
	 width="1640px" height="852px" viewBox="0 0 1640 852" enable-background="new 0 0 1640 852" xml:space="preserve">
<g enable-background="new    ">
	<path fill="#FFFFFF" d="M330.461,31.945c1.519,3.545,1.519,5.063,0.506,3.038c-1.519-2.025-7.595,18.734-15.696,53.163
		c-6.582,27.342-14.177,61.771-16.202,73.923c-0.506,4.051-2.025,11.646-3.038,16.202c-4.05,22.277-5.569,33.923-7.088,46.075
		c-1.013,7.595-2.025,14.177-2.025,15.189c-0.506,1.012-1.519,8.101-2.531,15.695c-0.506,8.102-1.519,17.215-2.025,20.253
		c-0.506,3.544,0,5.063,0.506,4.051s1.519-7.089,2.025-13.165c5.063-44.049,11.139-82.023,23.797-140.249
		c0.506-3.545,1.519-9.114,2.025-12.152c2.532-12.657,15.696-64.302,16.708-63.796c0,0.507,0,2.532-8.607,37.468
		c-11.139,47.088-22.278,106.326-27.341,142.275c-1.013,11.645-2.025,19.746-6.076,55.188c-2.025,19.24-4.557,44.556-5.063,54.682
		c-0.506,4.558-1.013,14.178-1.519,21.772c-1.519,18.227-1.519,37.974,0,74.935c1.519,37.974,3.038,51.645,5.57,51.138
		c0.506,0,2.025,0.507,2.025,2.025c3.544,13.164,0,25.316,0,25.316c-5.569,5.569-16.202,6.075-26.328,12.657
		c-3.038,2.025-6.076-10.126-7.595-23.797l-2.025-12.657l-5.569-7.089c-16.202-18.733-39.493-51.645-39.493-56.201
		c0-0.507-1.519-2.531-2.531-4.557c-3.544-4.051-12.658-23.797-17.721-37.974c-7.088-18.734-15.189-48.606-15.189-54.683
		c0-1.519-0.506-1.013-2.532,2.025c-5.063,11.139-32.911,85.567-32.911,88.605c0,1.013-0.506,2.025-1.013,2.025
		s-1.013,1.519-1.519,3.544c0,2.025-1.013,5.063-2.025,6.582c-0.506,1.519-2.025,5.569-2.532,8.607
		c-1.013,3.038-2.025,6.582-3.038,7.595c-1.012,1.52-9.113,27.848-10.126,33.924c-0.506,1.519-1.519,2.531-2.025,2.531
		c-1.013,0-1.519,1.013-1.519,1.519c0,1.013-1.519,2.532-3.038,3.545c-2.025,0.506-5.063,2.531-7.088,4.05
		c-3.544,2.532-3.544,2.532-6.076,0c-2.025-2.025-2.532-2.025-3.544,0c-0.506,1.52-1.013,1.52-2.532-1.013
		c-2.532-4.05-3.544-14.683-4.051-38.986c-0.506-12.151-1.012-22.784-1.519-22.784c-0.506-1.013-2.025-42.024-2.532-70.884
		c-2.025-65.821-3.544-86.581-12.658-136.2c-1.012-4.557-2.025-11.139-2.531-14.177s-2.025-8.101-2.532-10.633
		c-1.013-3.037-1.519-6.075-1.519-7.088c0-5.569-9.62-27.341-11.139-25.316c0,0.507-0.506,2.025-1.519,3.545
		c1.013,0-1.013,0-1.013,0s-6.582-1.013-7.088-0.507c-2.025,1.013-1.519-7.088,0-10.633c3.038-6.582,5.063-7.595,14.177-7.595
		c7.088-0.506,9.114,0,14.177,3.038c5.57,3.038,12.152,10.127,13.671,15.189c0.506,0.507,1.519,1.52,2.025,2.532
		c1.013,1.013,1.519,3.037,2.025,5.063c0.506,1.52,1.013,3.038,1.519,3.038s1.013,0.507,1.013,1.52c0,1.012,2.531,7.595,4.05,11.645
		c0.506,1.013,1.013,2.532,0.506,2.532c0,0.506,0.506,2.531,1.013,4.05c1.013,1.52,1.519,4.051,1.519,5.063
		c0,1.519,1.013,3.544,1.519,5.063c1.013,2.025,1.519,5.569,2.025,8.607c0.506,3.038,2.025,10.126,3.544,16.202
		c4.557,21.265,6.076,28.859,8.101,52.657c0.506,3.544,1.013,6.582,1.013,7.595c2.532,7.088,4.05,96.2,2.025,112.908
		c-0.506,6.582,1.013,6.582,2.025-0.506c0.506-2.532,1.013-4.558,2.025-4.558c0.506,0,4.557-8.607,9.114-19.239
		c12.658-28.86,19.747-45.063,28.86-62.784l8.102-16.202l-1.013-12.657c-1.013-16.202-0.506-32.911,1.519-46.075
		c2.025-11.139,3.544-15.695,6.583-18.733c1.519-1.52,1.519-1.013,1.012,3.038c0,2.531-1.012,6.582-1.519,9.113
		s-1.519,10.633-1.519,18.228c-0.506,7.595-1.013,15.189-1.013,17.215c-0.506,1.519,0,3.038,0.506,3.038s0.506,1.013,0,2.024
		c-0.506,1.013,0,1.52,0.506,1.013c1.013-0.506,1.519-1.519,1.519-2.531c0.506-18.733,2.025-33.923,4.05-43.543
		c1.519-8.607,2.025-10.127,4.557-9.62c1.013,0,2.531,0,3.544-0.507c0.506-0.506,2.025,0,2.532,1.013
		c1.013,1.013,2.025,1.52,3.038,1.52c0.506,0,1.013,5.569,1.013,15.189c0,8.607,0,16.202,0.506,17.215c0,1.013,0,3.038,0,4.557
		c0.506,1.519,1.013,2.025,2.025,2.025c1.013-0.507,1.519,0,1.519,2.025c0,1.519-0.506,3.037-1.013,3.037
		c-2.025,0.507,0.506,22.278,3.038,31.393c1.013,3.544,2.025,7.595,2.025,9.113s0.506,3.038,1.013,3.544
		c0.506,0.507,1.519,3.545,2.025,6.582c1.013,3.545,1.519,7.089,2.025,8.102c0.506,1.519,2.531,7.088,4.05,13.164
		c2.025,6.076,4.051,12.658,5.063,14.177c0.506,1.52,2.531,6.076,4.05,10.633s3.544,9.62,4.051,11.646
		c8.607,21.265,25.316,58.732,26.834,59.745c1.013,1.013,1.013-1.519-0.506-4.557c-0.506-1.52-0.506-2.025,0-1.52
		c1.013,0.507,1.519-7.088,1.519-26.834c0-49.113,3.038-89.112,11.139-146.326c5.063-34.936,12.658-75.441,18.734-102.275
		c7.595-32.404,10.126-43.544,12.151-48.607c0.506-3.037,2.025-9.113,3.544-14.177c6.076-24.303,21.265-65.314,25.315-68.858
		c2.025-2.025,2.025,0-1.012,6.582c-1.519,3.038-4.051,10.126-6.076,15.189c-5.063,16.708-13.164,42.53-13.67,45.568
		s-5.063,21.266-7.088,29.873c-1.013,4.05-2.532,9.62-3.544,12.657c-0.506,3.038-1.519,7.089-1.519,9.114
		c-0.506,3.038-2.025,8.607-5.569,24.81c-1.519,6.582-4.05,20.759-6.076,30.379c-0.506,3.038-1.519,8.101-2.532,11.139
		c-0.506,3.038-1.013,7.089-1.013,9.114c0,1.519-1.013,6.582-1.519,11.139c-1.013,4.557-2.025,9.62-2.025,12.151
		c0,2.025-0.506,4.051-0.506,4.557c-0.506,1.013-1.013,2.532-1.013,4.051c0,1.52-1.013,8.102-2.025,13.671
		c-1.519,11.139-2.025,15.189-3.038,26.835c0,3.037-0.506,8.101-1.013,10.632c-1.519,12.658-2.532,24.304-3.038,38.48
		c-0.506,8.607-1.013,16.202-1.519,16.709c-1.013,1.013-1.013,15.189-1.519,38.479c0,13.671,1.519,47.594,2.025,53.163
		c1.519,11.14,2.532,3.545,2.025-15.695c-0.506-18.228-0.506-30.886,0-63.796c0-6.582,0.506-12.658,0.506-13.671
		c0.506-0.506,1.013-6.582,1.519-13.164c0.506-17.721,1.519-25.315,3.544-38.48c0.506-7.088,1.519-15.695,1.519-20.252
		c0.506-4.558,0.506-8.102,0.506-8.102c0.506,0,0.506-1.013,0.506-2.531c0.506-1.013,1.013-4.051,1.519-6.582
		c0-2.532,0.506-6.076,1.013-7.595c0-1.52,1.013-7.595,1.519-13.165c1.013-5.569,2.532-15.189,3.544-20.759
		c0.506-5.569,1.519-11.646,2.025-13.164s1.013-6.582,2.025-11.646c2.531-15.189,5.569-29.872,9.113-46.581
		c2.025-8.607,4.051-17.215,4.051-18.228c0-1.519,0.506-4.557,1.013-7.088c1.013-2.532,2.532-8.102,3.544-12.152
		c1.519-4.557,4.051-15.189,6.583-23.29c2.025-8.102,5.063-18.228,6.076-22.278c1.013-4.05,2.532-9.113,3.544-11.645
		c1.013-2.532,2.025-5.063,2.025-5.57c0-2.531,8.101-25.315,9.114-25.315c0.506,0,1.013-1.013,1.519-2.531
		c0.506-2.025,1.013-2.025,1.519-0.507c0.506,0.507,1.013,2.531,0.506,3.544c-0.506,2.025-0.506,2.025,1.519-0.506l2.025-3.038
		L330.461,31.945z M86.923,325.609c0.506,0,1.013-1.013,1.013-2.025s-0.506-1.519-1.013-1.013c-0.506,0.507-1.013,1.52-1.013,2.025
		C85.91,325.104,86.417,325.609,86.923,325.609z M89.961,333.711c0-1.52-2.025-2.532-3.038-2.025
		c-0.506,0.506-1.013,1.519-0.506,2.025C86.923,335.229,89.961,335.229,89.961,333.711z M92.492,431.937
		c-0.506-0.507-1.013-13.671-1.013-29.367c-0.506-32.404-1.012-33.923-2.025-35.441c0-0.507,0-1.52,0.506-2.025
		c1.013-1.013,1.013-4.051,0.506-10.127c-0.506-4.557-1.013-10.126-1.013-12.151c0.506-2.531,0-4.557-0.506-5.063
		c-0.506-0.506-1.013,0-1.013,0.507c-0.506,5.063,0,31.897,0,32.404c0.506,3.038,0.506,11.139,1.013,52.657
		c0,49.112,0.506,65.821,2.025,64.302c1.012-0.506,1.519-12.151,1.519-27.848C92.999,445.101,92.492,432.442,92.492,431.937z
		 M100.087,448.645c0-5.569,0-9.62,0-9.113c-1.012,1.013-1.519,20.252-0.506,19.746
		C100.087,458.771,100.087,454.214,100.087,448.645z M100.593,360.039v7.595l0.506-9.62c0-5.063,0-15.189-0.506-23.29
		c0-8.102-1.012-13.671-1.012-12.152c-0.506,1.013-0.506,8.102,0,15.696C99.581,346.368,100.087,355.988,100.593,360.039z
		 M100.087,431.43c0-0.506,0-2.531,0-3.544c-0.506-1.013-0.506-0.507-0.506,1.519S99.581,432.442,100.087,431.43z M101.1,374.723
		c-0.506-3.038-0.506-0.507-0.506,5.569c0,5.569,0,7.595,0.506,4.557C101.1,381.811,101.1,377.254,101.1,374.723z M101.1,398.52
		c-0.506-2.532-0.506-0.507-0.506,4.557s0,7.089,0.506,5.063C101.1,405.607,101.1,401.558,101.1,398.52z M107.682,293.712
		c0.506,0,1.013-1.52,1.013-2.532s-0.506-2.531-1.013-3.544c-1.012-1.519-1.012-0.506-1.012,2.531
		C106.669,292.699,107.176,294.218,107.682,293.712z M108.188,302.825c-0.506,0.507-0.506,1.52,0,2.531
		c0.506,1.013,1.013,1.52,1.013,1.52c0.506-0.507,0.506-1.52,0-2.531C108.694,303.332,108.188,302.319,108.188,302.825z
		 M112.239,363.077c-0.506-20.759-2.532-54.683-3.544-54.683c0,0,0,9.62,0.506,21.266c1.519,36.455,1.013,82.529-1.013,97.213
		c-0.506,2.531-0.506,4.051,0,4.051s1.519-2.025,2.025-4.557C111.226,416.24,112.239,381.811,112.239,363.077z M118.821,421.81
		c-0.506-1.013-0.506-0.506-1.013,0.507c0,1.519,0.506,2.025,1.013,1.519C118.821,423.329,118.821,422.822,118.821,421.81z
		 M122.365,409.658l-1.519,3.038c-2.025,3.038-2.532,7.088-1.013,5.063c0.506-0.507,1.519-2.532,1.519-4.558L122.365,409.658z
		 M125.909,400.545c0-1.52-0.506-1.013-1.013,1.013c-0.506,2.024,0,3.037,0.506,2.531
		C125.909,403.076,126.416,401.558,125.909,400.545z M129.96,393.456c1.013-2.531-0.506-3.038-1.519-0.506
		c-0.506,1.519-1.013,2.531-0.506,2.531S129.454,394.469,129.96,393.456z M129.96,423.835c0-0.506-0.506-0.506-0.506,1.013
		c0,1.013,0,2.025,0.506,1.52C130.466,425.86,130.466,424.848,129.96,423.835z M141.605,364.596c0-3.544-1.519-2.025-2.025,1.52
		c-0.506,2.531-0.506,3.038,1.012,1.519C141.099,367.128,141.605,365.608,141.605,364.596z M141.605,391.431
		c-0.506,0.507-1.013,1.52-1.013,2.532c0,2.531,1.013,2.024,1.519-0.507C142.618,391.938,142.111,391.431,141.605,391.431z
		 M149.706,346.368c3.544-7.595,6.076-14.177,5.57-14.177c-1.013,0-12.152,25.822-12.152,27.848S143.124,361.559,149.706,346.368z
		 M150.212,373.71c0-0.507-0.506-1.013-0.506-1.013c-0.506,0-1.013,0.506-1.013,1.013c-0.506,0.506-0.506,1.013,0.506,1.013
		C149.706,374.723,150.212,374.216,150.212,373.71z M156.288,356.495c0-1.52,0-1.52-1.012,0c-1.519,2.531-1.519,4.051,0,3.038
		C155.782,359.026,156.288,358.014,156.288,356.495z M158.82,326.622c-1.013,0-3.544,2.532-3.544,3.544
		c0,2.025,1.519,1.013,3.038-1.012C158.82,327.635,158.82,326.622,158.82,326.622z M158.313,351.432
		c-0.506-0.506-1.013,0-1.519,1.52c-0.506,1.519-0.506,1.519,0.506,0.506S158.313,351.432,158.313,351.432z M159.326,324.091
		c0.506,0,1.519-1.013,1.519-2.531c0.506-1.013,1.519-3.038,2.532-4.051c0.506-1.52,1.519-3.038,1.013-4.051
		c0-1.013-1.519,1.013-3.038,4.557C159.833,321.56,158.82,324.091,159.326,324.091z M160.339,344.344
		c-0.506,0.506-1.013,1.519-1.013,2.024c0,1.52,1.013,1.013,1.519-1.012C161.352,344.344,160.845,343.837,160.339,344.344z
		 M165.402,333.711c-1.012,0-4.05,6.075-4.05,7.595c0,1.519,1.519-1.013,3.038-4.557
		C164.896,334.724,165.402,333.711,165.402,333.711z M167.934,327.635c0-1.519-0.506-1.519-1.013,0
		c-0.506,1.013-1.013,2.531-1.013,3.544c0,1.52,0,1.52,1.013,0C167.427,330.166,167.934,328.647,167.934,327.635z M170.465,284.598
		c-0.506,0-1.519,1.52-1.519,2.532s0,1.519,1.013,1.519c1.013-0.506,1.519-1.519,2.025-2.531
		C171.984,284.598,171.478,284.092,170.465,284.598z M180.085,246.624c0-5.569-0.506-6.076-1.013-3.038
		c-1.013,5.063-1.013,9.62,0,9.62C179.579,253.206,180.085,250.168,180.085,246.624z M179.073,257.257
		c-0.506-2.025-0.506-0.506-0.506,3.544c0,3.545,0,5.063,0.506,3.545C179.073,262.826,179.073,259.788,179.073,257.257z
		 M187.174,254.219c0-12.658,0-13.164-0.506-6.075c-0.506,5.063-0.506,11.139-0.506,14.177
		C187.174,272.952,187.68,268.396,187.174,254.219z M188.692,235.991c0-1.519-0.506-2.531-1.012-2.531
		c-1.013,0-1.013,1.519-1.013,3.038c0,1.519,0,2.531,1.013,2.531C188.187,238.523,188.692,237.004,188.692,235.991z M189.705,287.13
		c-1.519-1.52-1.519,0.506-0.506,3.544c1.013,2.025,1.013,2.025,1.013,0C190.718,289.661,190.211,288.143,189.705,287.13z
		 M191.224,296.75c-0.506-1.013-0.506-1.013-0.506,0.506c0,1.013,0,2.025,0.506,1.519C191.73,298.269,191.73,297.256,191.224,296.75
		z M263.627,514.973c-0.506,0-1.013-3.038-1.013-6.583c0-4.05-0.506-6.582-1.519-8.101c-1.013-1.013-2.025-1.519-2.532-1.013
		s3.038,19.24,3.544,19.24c0.506,0,1.519-0.507,1.519-1.52C264.134,516.491,264.134,515.479,263.627,514.973z M267.172,363.077
		c0-0.507,0-1.013-1.013-1.013c-0.506,0-1.013,1.519-1.013,2.531c0,2.532,0.506,2.532,1.013,1.013
		C267.172,364.596,267.172,363.583,267.172,363.077z M266.159,371.685c-0.506-1.52-0.506-0.507-0.506,3.038
		c0,3.544,0,5.063,0.506,3.544C266.159,376.241,266.159,373.71,266.159,371.685z M267.172,346.368
		c-0.506-1.519-0.506,0.507-0.506,4.558c0,6.075,0,6.075,1.013,1.519C267.678,349.913,267.678,347.381,267.172,346.368z
		 M267.172,462.315c-0.506-1.013-0.506,0-0.506,2.025c0,2.531,0,3.037,0.506,2.025C267.172,465.354,267.172,463.834,267.172,462.315
		z M269.703,328.142c0-1.013-0.506-1.52-1.519-1.013c-0.506,0.506-0.506,1.013-0.506,2.025c0,0.506,0,1.012,0.506,1.012
		C269.197,330.166,269.703,329.154,269.703,328.142z M270.209,310.42c-0.506-1.013-0.506-0.506-0.506,1.52
		c0,1.519,0,2.024,0.506,1.013C270.716,312.445,270.716,310.927,270.209,310.42z M270.716,302.825c-1.013,3.038-1.013,5.569,0,5.569
		c0.506,0,0.506-2.025,0.506-4.557C271.222,299.787,271.222,299.787,270.716,302.825z M274.26,276.497
		c0.506-1.013,0.506-2.025,0-3.038c0-0.507-0.506,0-0.506,1.519C273.754,276.497,274.26,277.003,274.26,276.497z M276.286,466.872
		c0.506,0,0.506-9.113,0-20.759c-0.506-11.14-0.506-30.886-0.506-43.544c0-13.164,0-25.821,0-28.354
		c0-2.531,0.506-9.62,1.013-16.202s0.506-12.151,0-14.177c-2.025-6.582-3.544,69.365-2.025,102.782
		c0.506,8.102,1.013,16.202,1.013,17.722C275.779,465.354,275.779,466.872,276.286,466.872z M275.779,259.788
		c0,2.025,0.506,2.532,0.506,1.52c0.506-0.507,0.506-2.025,0-2.532C276.286,257.763,275.779,258.27,275.779,259.788z
		 M277.805,474.974c-1.519-7.089-2.025-5.57-0.506,4.05c0.506,5.569,1.012,6.582,1.519,4.051
		C278.817,481.049,278.311,477.505,277.805,474.974z M278.817,245.611c0-0.506-0.506-0.506-1.012,0.507
		c-0.506,1.013-1.013,2.531-1.013,3.037c0,0.507,0.506,0.507,1.013-0.506C278.311,247.637,278.817,246.118,278.817,245.611z
		 M278.817,318.015l-1.012,5.063c-0.506,3.038-1.013,7.595-1.013,10.633c0,4.557,0.506,4.557,1.013,1.519
		c0.506-2.025,1.012-6.582,1.012-10.126V318.015z M279.323,239.029c0.506-0.506,0.506-1.519,0-2.025
		c0-1.013-0.506-1.013-0.506,0.507C278.817,238.523,279.323,239.536,279.323,239.029z M281.855,290.674
		c0-5.063-0.506-4.557-1.519,4.051c-0.506,5.063-1.519,12.657-1.013,16.202c0,6.582,0,6.582,1.013-4.051
		C281.349,301.307,281.855,293.712,281.855,290.674z M280.336,232.447c0.506-0.506,0.506-1.519,0-2.531
		c0-1.013-0.506-0.507-0.506,1.013C279.83,231.941,280.336,232.447,280.336,232.447z M283.88,208.144
		c-0.506-1.012-0.506,0-0.506,1.52c0,1.519,0,2.025,0.506,1.519C283.88,210.169,283.88,208.65,283.88,208.144z M283.88,498.771
		c0,2.024,0.506,3.544,1.013,3.544s1.012-1.013,1.012-2.532c0-1.519-0.506-3.544-1.012-3.544
		C284.387,495.732,283.88,496.745,283.88,498.771z M288.943,175.233c-0.506,0-1.013,1.013-1.013,2.025
		c0,1.519,0.506,2.531,0.506,2.531c0.506,0,1.013-1.013,1.013-2.531C289.956,176.246,289.45,175.233,288.943,175.233z
		 M292.488,158.525c-1.013,2.024-1.519,9.619-1.013,8.607c0.506-0.507,1.013-3.038,1.013-6.076
		C292.994,158.019,292.994,157.006,292.488,158.525z M301.602,121.058c0-1.52-1.013,2.025-2.532,7.595
		c-3.038,11.646-5.569,24.81-5.569,26.328c0,2.532,1.519-2.531,2.531-7.595c0.506-2.531,2.025-9.113,3.038-14.177
		C300.589,128.146,301.602,122.576,301.602,121.058z M304.639,104.349l-1.519,5.57c-1.519,7.088-2.025,8.607-0.506,7.088
		c0.506-0.506,1.013-3.544,1.519-7.088L304.639,104.349z M323.879,37.009c-1.519,2.531-6.582,19.24-13.67,45.568
		c-5.063,18.228-5.57,20.759-4.557,19.24c0.506-0.506,3.038-8.101,5.063-17.215c2.532-9.113,6.583-23.29,9.114-31.392
		C325.905,34.478,326.411,33.465,323.879,37.009z"/>
	<path fill="#FFFFFF" d="M478.309,502.82c0.506,2.532-1.013,5.569-4.051,5.569c-9.62,0-20.252-5.063-27.847-16.708
		c-4.557-7.595-11.139-31.898-13.671-51.138c-2.531-20.76-4.05-136.706-1.519-136.706c0.506,0,1.013-0.506,1.013-1.519
		c0-0.507-0.506-1.013-1.519-1.013c-0.506,0.506-1.519-3.545-1.519-9.62c-0.506-7.089,0-10.127,1.013-10.127
		c0.506,0,0.506-1.012,0-2.024s-1.519-5.57-1.519-10.127c0.506-27.341-23.291,52.151-23.291,52.151c-1.013,4.05,0,4.557-2.025,6.075
		c-0.506,0-1.519,3.038-1.519,5.569c-0.506,2.532-1.519,6.582-2.025,8.102c-1.013,1.519-1.519,4.557-1.519,6.582
		c0,2.531-0.506,5.063-1.013,5.569c-1.013,0.507-2.025,5.063-3.038,9.62c-1.519,4.557-3.038,12.151-4.05,16.708
		c-2.532,10.127-5.57,26.329-6.583,33.417c0,3.038-1.013,6.076-1.519,6.582c-1.013,0.507-3.038,28.354-4.051,32.404
		c-6.076,23.291-34.43,4.051-36.455,2.532c-3.544-2.532-7.595-12.658-10.633-23.797c0-2.025-1.519-7.089-2.532-12.151
		c-3.038-12.152-5.569-28.354-7.088-46.582c-1.013-8.607-1.519-18.733-2.025-22.277c-1.013-9.114-2.025-34.43-2.531-53.67
		c-0.506-20.253,1.519-83.542,3.038-100.251c1.013-6.075,2.025-17.721,2.532-25.822c5.063-53.669,14.177-102.782,21.771-115.946
		c3.038-5.569,5.063-6.076,4.557-1.013c-0.506,2.025-1.519,7.595-2.025,12.151c-1.013,4.558-2.025,9.114-3.038,10.127
		c-0.506,1.013-1.013,3.037-0.506,4.05s0,2.532-0.506,3.038c-1.012,1.013-1.519,4.051-1.519,7.089s-0.506,6.075-0.506,6.582
		c-0.506,1.013-1.013,3.544-1.519,6.582c-0.506,11.139-1.519,18.228-2.532,19.746c-1.013,1.52-1.519,4.051-1.013,6.582
		c0.506,2.025,0,4.051-0.506,4.558c-0.506,0,0,1.013,1.013,2.024c2.532,1.52,2.532,1.013,3.038-6.075
		c0-1.013,0.506-2.025,1.519-2.025c0.506,0,0.506-3.544,0-8.102c-0.506-6.075,0-9.619,2.025-15.189
		c1.519-5.063,2.025-8.607,1.519-11.645c-0.506-3.038,0-4.051,0.506-3.545c1.519,0.507,2.532-4.557,3.544-13.67
		c0-1.52,0.506-3.545,1.013-4.558c0.506-0.506,1.012-4.05,1.519-7.595c3.544-19.239,15.19-10.632,15.19-10.126
		c1.012,1.013,1.519,4.051,1.012,9.114c0,4.05-0.506,11.645-0.506,16.708c0,6.076-0.506,9.62-1.519,9.62
		c-0.506,0-1.013,0.506-0.506,1.013c0.506,0.506,0.506,2.025-0.506,3.038c-1.519,1.519-1.519,2.025,0,2.531
		c1.013,0.506,1.013,1.013,0,2.531c-1.013,1.52-1.013,2.025,0,2.025s1.519,1.013,1.519,2.532c0,1.519,0.506,1.012,1.012-1.013
		c1.519-5.063,2.532-21.772,2.532-35.442c0-7.089,0.506-10.633,1.519-10.127c1.519,1.013,0,68.859-2.025,80.505
		c-0.506,3.544-2.531,39.999-4.05,66.834c-1.519,39.492,0.506,151.895,3.038,176.704l28.354-91.643v-0.507
		c0-2.531,12.151-35.442,17.215-46.581c8.607-18.733,9.62-19.746,19.24-20.759c8.101-0.507,17.721,1.519,17.721,4.051
		c0,0.506,1.013,1.012,1.519,1.012c1.013,0,2.532,2.025,3.038,4.051s1.519,4.557,2.531,6.076c1.519,2.025,3.038,11.139,5.063,25.822
		c0.506,3.544,1.013,7.088,0.506,7.595c0,0.506,0.506,4.557,1.012,9.113c1.013,4.051,1.519,27.848,2.025,52.657
		c2.025,112.908,2.532,126.579,7.595,149.87C473.751,482.062,475.777,493.2,478.309,502.82z M338.059,140.298
		c-2.532-3.038-4.051-3.545-4.051-1.013c0,0.506,0.506,1.013,1.013,0.506c1.013-1.013,1.519,0,0.506,2.025
		c-0.506,2.025-1.519,3.544-2.025,4.051c-0.506,0.506-1.013,3.038-0.506,5.569c0.506,2.025,0,4.557-0.506,5.063
		c-0.506,0.506-1.013,1.519-1.013,2.025c0,1.013,0.506,1.013,1.013,0.506c1.013-0.506,1.013,0,0.506,2.025
		c-1.013,1.519-1.013,4.051-1.013,5.569c0.506,2.531,0.506,3.038-0.506,2.531c-2.025-1.519-3.038,11.646-2.025,26.329
		c0.506,8.101,0,11.646-1.013,11.646c-0.506,0-1.013,3.037-0.506,8.607c0.506,5.569,0.506,8.607-0.506,8.607
		c-0.506,0-1.013,2.024-1.013,4.557c0,3.038,0.506,5.063,1.013,5.063c1.013,0,1.519,2.025,1.519,5.063
		c0,2.531-0.506,4.557-1.013,4.051c-0.506,0-1.013,9.62-1.013,22.277c0,12.152-0.506,23.798-1.012,25.316
		c-1.013,1.519-1.013,2.025,0,1.519c1.012-1.013,1.519,2.025,2.025,11.14c0,6.582,0,12.657-0.506,13.67
		c-1.519,6.582-1.519,8.102,0,7.089c1.519-1.013,1.519,0.506,1.013,7.595c0,4.557,0,8.607,0.506,8.607
		c0.506,0.506,1.013,4.557,1.519,9.113c0.506,5.063,0,8.607-0.506,8.102c-0.506-0.507-1.013,1.013-1.013,3.544
		c0,3.038,0.506,4.051,1.013,3.544c1.013-0.506,1.519,0,1.013,2.025c-1.519,4.557,1.519,8.102,3.038,3.544
		c1.519-3.544,0-19.239-1.519-20.759c-1.519-1.013-1.519-1.519,0-2.025c0.506,0,1.519-2.024,1.519-4.05s-0.506-3.038-1.519-2.532
		c-0.506,0.507-1.013-3.038-1.013-8.607c0.506-5.063,0.506-14.683,0-21.265c0-6.582,0-14.684,0-18.228c0-3.038,0-6.582,0-7.595
		c-0.506-1.013,0-4.557,0.506-7.595c0.506-4.051,0-7.089-1.013-8.102c-1.013-1.519-1.013-2.025,0.506-2.025s1.519-0.506,0-1.013
		c-1.519-1.519-1.519-8.607,0.506-8.607c0.506,0,0.506-0.506-0.506-1.519c-0.506-1.013-0.506-3.544,0-6.582s0.506-6.582,0.506-7.595
		c-0.506-1.013-0.506-2.531,0.506-3.038c0.506-0.506,0.506-3.038,0-6.582c-1.013-3.544-1.013-6.582,0-8.101
		c0.506-1.52,0.506-3.038,0-4.558c-1.013-2.025-1.013-4.05,0.506-6.582c1.012-2.531,1.519-5.063,0.506-7.088
		c-0.506-1.52-0.506-3.038,0.506-3.545c0.506-0.506,1.013-3.037,1.013-6.075c-0.506-3.038,0-6.076,0.506-7.595
		c1.013-2.025,0.506-3.038-0.506-4.051s-1.519-1.519-0.506-2.531c0.506-0.507,1.519-4.051,1.519-8.607
		c0.506-10.633,0.506-12.658,2.025-12.658c0.506,0,0.506-2.025,0-5.063s0-7.088,1.013-9.113
		C340.084,143.335,339.578,142.323,338.059,140.298z M325.401,261.813c0,2.532,0,4.051,0.506,2.532c0.506-1.52,0.506-3.545,0-5.063
		C325.401,258.27,325.401,259.282,325.401,261.813z M337.552,394.469c0-2.025-0.506-4.051-1.519-4.557
		c-0.506-1.013-1.013-3.544-0.506-7.089c0.506-5.063,0.506-6.075-1.013-7.088c-2.025-0.507-2.025,0-1.519,6.075
		c0,4.051,0,7.089-0.506,7.089s-1.013,1.013-1.013,1.519c0,1.013,0.506,1.013,1.013,0.507c1.013-0.507,2.025,2.025,1.519,7.595
		c0,0.506,1.013,1.013,2.025,0.506C337.046,399.025,337.552,396.494,337.552,394.469z M338.059,409.152
		c-1.013-0.507-1.519,1.013-1.519,4.557c0,5.063,2.025,4.557,2.532-1.013C339.578,411.177,339.071,409.152,338.059,409.152z
		 M363.881,377.761c-0.506-8.102-1.519-22.785-2.532-32.911c-2.532-31.392-1.013-168.098,2.025-186.324
		c0.506-2.025,1.013-11.14,1.519-20.76c0.506-12.657,0.506-17.215-0.506-16.202c-1.013,0.507-1.013,2.025-1.013,3.545
		c0.506,1.519,0.506,3.544,0,4.05c-2.025,1.013-3.544,7.089-2.025,7.089s1.013,8.101-1.013,9.62
		c-1.519,1.013-1.519,2.025-0.506,2.531c1.519,0.507,1.519,17.722-0.506,25.316c-0.506,2.024-0.506,7.088-0.506,11.645
		c0.506,5.063,0,8.102-1.012,8.102c-0.506,0-1.013,1.013-1.013,2.025c0,1.519,0.506,2.025,1.013,1.519
		c2.025-1.519,1.519,1.52-0.506,3.544c-1.519,1.52-1.519,2.025,0,3.545c1.013,1.519,1.519,2.531,1.013,3.038
		c-0.506,0-1.013,6.075-1.013,13.164c0.506,10.633,0.506,12.657-1.519,14.177c-2.532,2.025-2.532,2.025,0,2.025
		c2.025,0,2.025,0.506,0.506,2.531c-1.013,1.519-1.013,2.531-0.506,2.531c1.013,0.507,1.519,7.595,1.519,19.24
		c-0.506,28.86,3.038,106.327,5.063,127.086C363.881,400.038,364.894,392.443,363.881,377.761z M362.362,111.943
		c1.013,0.507,2.025,1.52,2.025,3.038c0,3.038,0.506,1.52,1.519-3.038c1.012-3.544,0.506-4.05-2.025-2.024
		C361.855,110.931,361.349,111.943,362.362,111.943z M378.058,362.57c-0.506,0-4.05,10.633-4.05,14.178
		c0,3.037,2.025-1.013,3.544-6.583C379.577,363.077,379.577,362.57,378.058,362.57z M414.006,250.675
		c-0.506,0-2.025,3.038-3.544,6.582s-3.544,6.582-4.557,6.582c-1.013-0.506-1.013,0-0.506,2.025
		c1.013,1.519,0.506,3.544-1.519,6.582c-1.519,2.025-2.532,4.557-2.025,5.569c0,1.013,0,2.025-1.013,2.025
		c-0.506,0-1.519,0.507-1.013,1.013c0.506,4.051-0.506,7.595-2.025,7.595c-0.506,0-0.506-0.506-1.013-0.506
		c-0.506,2.531-1.013,6.075-1.013,7.088c0,1.52-0.506,3.038-1.519,3.038c-0.506,0-0.506,1.013-0.506,2.025
		c0.506,1.013,0.506,3.038-0.506,4.051c-0.506,0.506-1.519,3.544-2.025,6.582c-1.012,5.569-3.038,13.164-4.557,17.215
		c-2.025,4.557-7.595,27.341-7.595,29.872c0,3.038,1.519,1.013,3.038-4.05c2.531-12.152,15.696-55.695,17.214-57.214
		c0-0.507,1.013,0.506,2.025,1.519c1.013,2.025,1.519,2.025,2.532-1.013c1.519-3.038,1.519-3.038-0.506-2.025
		c-3.038,2.025-4.051-1.013-2.025-5.569c1.013-2.025,2.532-7.089,4.051-11.139c1.013-4.051,2.531-8.102,3.038-9.114
		c0.506-0.506,1.013-2.531,1.013-4.051c0-1.519,0.506-3.544,1.519-4.557C412.487,259.282,415.019,250.675,414.006,250.675z
		 M382.614,400.038c-0.506-1.013-0.506-1.013-0.506,0.507c0,1.519,0,2.531,0.506,2.024
		C383.121,402.063,383.121,401.051,382.614,400.038z M391.728,364.09c0-1.013,0-1.52-0.506-1.52c0,0-1.012,0.507-1.012,1.52
		c-0.506,0.506-0.506,1.013,0.506,1.013C391.222,365.103,391.728,364.596,391.728,364.09z M400.335,327.129
		c-0.506-1.013-0.506-0.507-0.506,1.013c-0.506,1.519,0,2.024,0.506,1.519C400.842,329.66,400.842,328.142,400.335,327.129z
		 M400.842,323.078c0,2.025,0,2.025,2.025-0.507C406.412,317.002,400.842,319.027,400.842,323.078z M411.981,274.978
		c0-1.013-0.506-1.519-1.013-1.013c-1.013,0.507-1.013,1.52-0.506,2.025C411.475,278.016,411.981,277.51,411.981,274.978z
		 M436.284,257.763c0.506-1.012,1.013-2.531,1.013-3.037c0-1.013-0.506-1.52-1.013-1.52c-1.013,0-1.519,1.52-1.519,3.545
		C434.765,259.282,435.271,259.282,436.284,257.763z M444.385,455.227c1.013-3.038,1.519-5.569,0.506-9.62
		c-1.013-3.037-1.519-12.151-2.025-19.746c0-7.595-0.506-24.303-1.013-36.961c-1.013-30.886-1.013-49.113,0-51.645
		c0.506-1.519,0-6.076-0.506-10.633c-0.506-5.063-1.013-10.633,0-13.67c0.506-3.038,0.506-5.57-0.506-6.076
		c-0.506,0-0.506-1.52-0.506-3.038c1.519-3.544,2.532-12.658,1.013-12.658c-0.506,0-1.013-5.063-1.013-10.632
		c0-6.076-0.506-11.14-1.519-11.14c-0.506-0.506-1.013-2.025-0.506-4.051c0.506-2.024,0-3.544-0.506-3.544
		c-3.038,0-3.038,25.822-1.013,91.644c0,9.113,0.506,17.215,0.506,18.228c0,0.506,0,1.519,0,2.025
		c-0.506,2.025-1.013,10.633,0,11.646c1.519,3.037,2.025,30.379,1.013,32.91c-0.506,0.507-0.506,1.519,0,1.519
		c1.013,0,1.519,3.038,1.013,9.114c-0.506,5.569,0,9.113,1.012,9.113c0.506,0,1.013,1.52,0.506,3.038
		c-0.506,2.025-0.506,4.051,0.506,4.557c0.506,0.507,1.013,1.52,1.013,2.532s0,4.05,0,6.582l0.506,5.063L444.385,455.227z
		 M446.411,462.821c0-2.025-0.506-4.05-1.519-3.544c-1.013,1.013,0,8.101,1.013,8.101
		C445.904,467.378,446.411,465.354,446.411,462.821z M446.917,258.27c1.012,6.582,1.519,21.771,2.531,62.783
		c0.506,15.696,1.519,28.86,2.025,28.86s0.506-15.189,0-33.417c0-18.228-0.506-33.924-1.013-34.937c0-1.012,0-1.519,1.013-1.519
		s1.013-0.506,0-2.025c-1.013-1.013-1.519-3.038-1.519-5.063c0.506-6.075-1.519-18.227-3.038-19.239
		C446.411,253.206,446.411,255.231,446.917,258.27z M450.967,384.343c0,1.519,0,5.569,0.506,9.62c0,3.544,0.506-3.038,0.506-15.19
		c0.506-12.151,0.506-22.784,0-23.29c-1.519-1.519-2.025,1.519-2.532,11.139c0,5.569,0.506,9.62,1.013,9.62s0.506,1.013-0.506,2.025
		c-1.013,1.519-1.013,2.531,0,3.038C450.967,381.811,451.474,383.33,450.967,384.343z M451.98,351.432
		c-0.506,0-1.013,0.507-1.519,1.52c-0.506,0.506,0,1.013,0.506,1.013c1.013,0,1.519-0.507,1.519-1.013
		C452.486,351.938,452.486,351.432,451.98,351.432z M451.98,406.62c0.506-0.506,0.506-1.519,0-2.531s-0.506-1.013-0.506,1.013
		C451.474,406.62,451.474,407.127,451.98,406.62z M451.98,421.304l1.013,3.544l0.506-4.051c0-2.024,0-5.063-1.013-6.075
		c-1.013-2.532-1.013-2.532-1.013,0C451.474,416.24,451.474,419.278,451.98,421.304z M458.056,466.872
		c-0.506-4.557-2.025-14.684-3.038-21.771c-1.013-7.595-2.025-12.151-2.025-11.139c-1.519,5.569,4.05,41.518,6.076,41.518
		C459.575,475.479,459.068,471.429,458.056,466.872z M469.701,476.998c-1.013-5.063-2.025-12.657-2.532-17.215
		c-0.506-5.063-1.519-13.164-2.025-19.239c-0.506-5.57-1.519-42.024-2.025-80.505c-0.506-38.986-1.013-70.884-1.013-71.391
		c-0.506-0.506-1.013-5.063-1.013-9.62s-1.013-11.139-2.025-14.177c-1.519-6.582-1.519-6.582-0.506,4.051
		c0,5.569,0.506,17.215,1.013,25.315c0,8.102,0.506,14.684,0.506,14.684s0.506,9.113,1.013,20.253
		c0.506,15.695,0,21.265-1.013,22.784c-1.013,1.519-1.519,2.531-0.506,3.037c1.013,1.013,1.519,16.709,2.025,43.037
		c0.506,23.291,1.519,45.568,2.025,50.126c1.013,4.557,2.025,13.164,2.532,18.228c1.519,10.632,4.051,20.759,5.063,19.746
		C471.22,486.112,470.714,481.556,469.701,476.998z"/>
	<path fill="#FFFFFF" d="M616.528,233.966c-0.506,8.102-1.013,16.709-1.013,20.253c0,3.038-0.506,8.607-1.013,12.151
		c-0.506,4.051-1.013,11.14-1.519,16.202c0,5.063-1.519,19.747-2.531,32.404c-4.051,43.037-5.569,65.821-4.051,98.732
		c1.013,27.341,2.532,35.948,5.063,43.543c1.013,2.531-1.013,5.063-3.544,4.557c-15.189-2.531-20.759-6.075-20.759-6.075
		c-0.506-0.507-3.544-5.063-3.038-5.063c-1.013-1.013-4.05-11.646-5.063-19.746c-1.519-8.607-3.544-33.924-3.544-46.075
		c-0.506-5.063-0.506-10.126-1.013-11.646c-1.013-2.531-1.013-2.531-2.025,0.507c-13.671,49.619-33.923,49.619-37.468,52.15
		c-3.544,2.025-16.708,3.038-18.228,1.013c0-1.013-2.531-2.025-4.557-2.531c-4.051-1.013-12.658-9.114-16.708-16.709
		c-3.544-6.582-8.101-22.277-9.114-31.897c-3.038-24.304,0-63.29,6.582-89.112c4.557-16.708,12.658-36.961,17.721-46.075
		c6.076-9.619,14.683-18.227,21.771-21.771c6.583-3.544,23.291-3.544,32.911-0.506c7.089,2.531,17.721,9.113,17.721,10.633
		c0,1.013,0.506,1.519,1.013,1.519c1.013,0,2.025-2.531,2.532-5.569c3.544-14.684,6.076-21.771,8.101-24.304
		c2.531-2.024,12.658,2.025,12.658,2.532c-0.506,2.531-0.506,2.531,1.013,0.506s5.063-1.519,5.063,0.507
		c0,1.013,1.013,1.013,2.025,1.013s1.519,1.013,1.519,2.531C617.541,212.701,617.541,220.802,616.528,233.966z M520.328,245.105
		c4.05-8.102,0.506-5.063-5.063,4.05c-4.051,6.583-6.583,12.658-10.126,25.316c-3.038,9.113-5.57,18.733-6.076,21.266
		c-0.506,2.531-1.013,4.557-1.519,4.557s-1.013,1.519-1.013,3.544c0.506,6.076-3.544,35.442-4.557,37.974
		c-1.012,1.52-1.012,2.532,0,3.038c0.506,0.507,1.013,5.063,0.506,11.646c0,8.607,0.506,11.139,1.519,11.139
		c0.506,0,1.519-1.519,1.519-3.038c0-1.519,0-8.607,0.506-15.695c0.506-26.329,3.038-46.075,8.101-60.758
		c0.506-1.013,2.532-8.102,4.557-15.696C512.227,260.295,514.252,255.738,520.328,245.105z M495.518,369.153
		c-2.532,0.506-3.038,8.101-1.013,8.101c1.013,0,2.025-1.519,2.025-4.051C497.037,369.659,496.531,368.646,495.518,369.153z
		 M516.783,341.306c0.506,0,1.013-5.063,1.519-11.14c1.013-11.645,3.544-25.315,8.607-47.087c4.051-17.215,4.051-20.253,0.506-8.607
		c-3.544,11.646-8.101,32.91-10.126,50.125C515.265,340.293,515.265,341.306,516.783,341.306z M517.796,368.646
		c-0.506-7.595-0.506-16.202,0-18.228c0-2.025-0.506-5.063-1.013-6.075c-1.013-2.025-1.013,2.024-1.013,17.215
		c0.506,16.708,1.519,23.797,2.532,21.771C518.809,383.33,518.302,376.748,517.796,368.646z M579.567,260.295
		c-1.013-1.52-3.038-6.076-4.557-9.62c-3.038-6.076-9.114-13.671-12.151-14.177c-3.038-0.507-4.051,0-9.114,5.063
		c-2.532,3.038-5.063,5.57-5.57,5.063c-0.506,0-1.012,0.507-0.506,1.013c0.506,1.013,0,2.531-1.013,3.544
		c-5.063,6.582-11.646,25.822-15.189,42.531c-4.557,23.797-6.076,34.936-6.583,58.227c-1.012,21.265-1.012,22.277-2.025,6.582
		c0-7.089,1.519-34.937,3.038-44.05c3.038-20.253,10.633-49.619,14.177-54.683c2.531-3.037,6.076-10.633,5.063-10.633
		c-1.519,0-10.126,17.215-13.165,26.835c-9.62,28.86-14.683,91.644-9.113,108.858c0,1.013,1.013,4.557,2.025,7.595
		c1.013,5.569,5.063,13.671,6.583,13.671c0.506,0,3.038-3.038,5.569-6.582c5.569-7.595,10.126-17.215,17.721-37.468
		c8.607-23.291,22.784-71.897,24.81-86.074C581.085,264.852,581.085,263.333,579.567,260.295z M576.529,310.927v-4.051l-2.025,5.063
		c-0.506,3.037-3.038,10.126-5.063,16.708c-1.519,6.582-3.544,13.164-4.051,14.177s-1.519,4.557-2.531,7.595
		c-1.013,5.569-7.595,22.278-11.139,30.886c-1.519,3.038-1.519,4.051,0,3.038c0,0,2.532-4.558,4.557-9.62
		C565.39,354.976,576.529,319.027,576.529,310.927z M582.604,417.253c1.013,16.202,1.519,19.24,3.544,26.835
		c0.506,3.038,1.013,6.076,1.013,6.582c0.506,2.025,2.531,2.531,2.025,0c0-0.506,0-0.506,0-0.506c0-1.013,1.013-2.532,1.519-3.038
		c0.506-0.507,0.506-1.52-0.506-2.532c-0.506-0.506-1.013-2.024-0.506-3.037s0-1.52-0.506-1.52c-0.506,0-1.012-1.519-0.506-3.038
		c0-1.519,0-3.544-0.506-4.05c-1.013-0.507-1.013-1.52-1.013-2.532c0.506-1.013,0-2.531-0.506-3.038
		c-1.519-1.012-1.519-1.012,0-1.012c0.506,0,1.013-0.507,0.506-1.013c-1.013-2.025-2.025-19.747-2.025-35.949
		c0-10.126-0.506-18.228-1.013-18.733c-0.506-0.507-0.506-2.025,0-3.038c1.013-2.025,1.013-18.228,0-19.24
		C581.592,345.356,580.579,387.38,582.604,417.253z M583.111,342.318c0,1.519,1.519,3.038,2.025,2.025c0.506,0,0-1.013-0.506-2.025
		C583.617,341.306,583.111,341.306,583.111,342.318z M592.731,395.987c0,6.582,0.506,17.215,0.506,23.797
		c0,6.583,1.013,15.696,2.025,20.76c0.506,3.037,1.013,5.569,1.013,7.595c1.012,4.557,4.05,4.05,2.531-1.013
		c-1.013-3.038-2.025-9.114-2.531-15.696c-2.532-20.759-2.532-62.783,0.506-106.326c1.519-19.747,1.519-19.747,0-17.215
		c-0.506,1.013-1.519,7.088-1.519,13.164c-0.506,6.076-1.013,15.189-1.519,20.759c0,5.569-0.506,17.215-1.013,25.316
		c0,8.607-0.506,15.695-0.506,16.202C591.718,383.33,592.225,388.899,592.731,395.987z M596.781,301.307
		c0,4.05,0.506,3.038,1.519-2.532c0.506-3.037,0.506-3.544-0.506-2.531C597.288,297.256,596.781,299.787,596.781,301.307z
		 M607.92,296.243c-0.506,1.013-1.013,3.544-1.013,5.569c0,5.569-2.531,26.835-3.544,26.835c0,0-0.506,9.113-0.506,20.253
		c0,13.67-0.506,20.759-1.519,21.265c-1.013,0.507-1.013,1.013-0.506,1.013c0.506,0.507,1.013,12.658,0.506,27.848
		s0,27.342,0.506,27.342s0.506,2.531,0.506,6.075c-0.506,3.544-0.506,6.076,0,6.076s1.013,2.531,1.013,5.569
		c0,0.506,0,0.506,0,1.013c0.506,4.051,3.038,3.544,2.025-1.013c-2.531-22.278-2.531-74.429,1.013-113.415
		c0-3.544,1.013-11.139,1.013-16.709c0.506-6.075,1.013-12.657,1.519-15.189C608.933,295.737,608.933,295.23,607.92,296.243z
		 M610.452,268.396c-0.506,0.507-1.013,2.532-1.013,5.063s-0.506,6.582-1.013,8.607c0,3.038,0,3.038,0.506,1.013
		c0.506-1.52,1.519-5.569,1.519-9.114C610.958,270.928,610.958,267.89,610.452,268.396z M608.933,288.143
		c-0.506-1.52-0.506-0.507-0.506,2.024c0,2.532,0,3.545,0.506,2.025C608.933,291.18,608.933,289.155,608.933,288.143z
		 M610.958,259.282c0-1.013-0.506,0-0.506,2.025c0,2.531,0.506,3.544,0.506,2.531C611.465,262.32,611.465,260.295,610.958,259.282z
		 M612.478,246.624c0-1.013,0-1.519-0.506-1.519c0,0-0.506,0.506-1.013,1.519c-0.506,0.507,0,1.013,0.506,1.013
		S612.478,247.131,612.478,246.624z"/>
	<path fill="#FFFFFF" d="M685.895,119.032c0,1.519,7.088,2.025,41.518,1.519c23.291,0,44.556-1.013,47.594-1.519
		c3.038-1.013,5.569-1.013,5.569-0.506c0,1.012-2.532,1.519-5.063,2.024c-2.532,0.507-6.582,1.52-9.114,2.532
		c-2.532,0.506-22.278,1.519-44.05,2.025c-21.771,0.506-39.999,1.013-40.505,1.519c-0.506,1.013-3.038,26.328-4.05,46.581
		c-0.506,1.52-1.013,7.089-1.519,10.127c0.506,1.012,0,8.101-1.519,26.834c-4.557,65.821-6.582,121.517-6.076,186.325
		c0.506,59.239,1.013,70.378,4.051,94.682c2.025,18.227,6.582,31.897,10.632,31.897c0,0,39.999-18.733,18.228,7.089
		c-9.62,11.139-23.291,15.695-29.873,15.695c-2.532,0-7.089-1.013-10.126-2.025c-4.557-1.519-7.088-3.544-11.139-9.62
		c-6.582-9.113-7.088-10.632-10.126-23.797c-3.544-16.202-5.063-29.872-6.583-60.758c-1.519-30.885-0.506-128.098,1.519-152.401
		c0.506-8.607,1.519-22.784,2.025-31.392c1.013-17.721,1.519-25.316,1.519-25.316c0.506,0,0.506-2.531,0.506-5.569
		c0.506-3.037,0.506-6.075,0.506-7.088c0.506-1.013,1.012-1.52,1.519-1.013c0.506,0.506,1.519,0,2.025-0.507
		c0.506-1.013,0-1.519-1.013-1.519c-2.025,0-3.038-5.063-1.013-6.076c0-0.506,9.62-87.086,9.62-88.605l1.013-4.05h-20.252
		c-13.671,0-20.759-0.507-21.772-1.52s1.519-1.519,10.126-2.025c23.797-0.506,29.873-0.506,31.392-2.025
		c3.544-2.531-1.013-3.037-14.683-2.531c-15.696,1.013-29.366,1.013-30.379,0c-1.519-3.544-4.557-13.164,4.557-13.671l45.063-4.557
		l2.025-10.633c6.582-29.366,10.126-41.518,12.658-44.049c0,0,2.025-2.532,2.531-2.532c7.089-0.506,5.57,7.089,5.57,7.089
		c-1.013,2.531-7.088,45.568-6.582,46.074c1.519,1.52,2.025,0,4.557-21.771c1.519-11.645,3.544-23.29,4.557-26.328
		c1.519-5.063,1.519-5.063,3.038-2.025c1.013,2.025,1.013,4.051,0.506,4.051c-0.506,0.506-1.013,4.051-1.013,7.595
		c-0.506,11.646-1.013,17.721-2.532,17.721c-0.506,0-0.506,0.507,0,1.52c0,0.506,0,6.075-0.506,11.645
		c-0.506,6.076-0.506,10.633,0,10.633c1.013,0,2.025-5.063,3.544-24.81c2.025-20.759,4.051-31.897,3.038-16.708
		c-0.506,5.569-1.013,15.189-2.025,21.265c-0.506,6.076-1.013,13.671-1.013,16.203c0,4.05,0,4.557,2.025,2.531
		c1.519-1.013,2.025-1.013,1.519,0c-3.038,5.063,61.771,8.101,62.277,8.101c3.038,0,29.366-1.519,30.379,1.52
		c2.532,5.569,1.519,8.607-3.038,8.607c-2.532,0-88.1,1.519-90.631,1.519C685.895,117.007,685.895,118.02,685.895,119.032z
		 M653.49,396.494c0-0.507,1.013-13.671,1.013-29.873c0.506-16.202,1.519-42.53,2.531-58.227
		c0.506-15.695,1.013-30.885,1.013-33.923c0-1.52,3.038-84.555,9.62-84.555c1.519,0,1.519-0.507,0.506-2.025
		c-0.506-0.507-1.013-4.051-1.013-6.582c-0.506,0-0.506,0.506-1.013,1.013c-1.519,5.569,1.013-32.911,3.544-52.657
		c0-1.013-0.506-2.531-1.013-2.531c-0.506-0.507-1.519,0.506-1.519,2.531s-1.013,8.101-1.519,14.177
		c-1.013,5.569-2.025,13.671-2.025,17.215c-0.506,4.051-1.519,10.633-2.025,14.683c-1.013,4.558-1.519,9.62-1.519,12.152
		l-1.519,26.328c-0.506,2.531-1.013,12.658-1.013,23.291c-0.506,10.126-1.012,20.252-1.519,22.277
		c-1.013,4.558-2.025,22.784-2.532,46.581c0,10.633-0.506,24.304-1.013,29.873C651.971,351.432,652.478,397,653.49,396.494z
		 M662.098,512.947c-1.013-3.038-2.532-15.189-3.544-26.835c-0.506-5.063-1.013-9.62-1.519-10.127
		c0-0.506-0.506-11.645-1.012-25.821c-0.506-13.671-1.013-25.822-1.519-26.835c0-1.52-0.506-4.051-0.506-6.582
		c0-3.545-0.506-3.545-1.013,1.519c-0.506,3.038-0.506,6.582,0,7.595c0.506,1.519,1.013,12.151,1.013,23.797
		c0,12.151,0.506,23.291,0.506,25.316c2.025,12.151,3.544,20.759,4.05,25.821c0.506,5.57,3.038,14.684,4.051,14.684
		C663.11,515.479,662.604,513.96,662.098,512.947z M653.997,400.038c-0.506-1.013-1.013-0.506-1.013,2.531
		c0,4.558,1.519,6.076,2.025,2.532C655.516,403.076,655.009,401.051,653.997,400.038z M658.047,119.538
		c0,1.013,0.506,1.52,1.519,1.52s2.025-0.507,2.025-1.52c0-0.506-1.013-1.012-2.025-1.012S658.047,119.032,658.047,119.538z
		 M678.806,125.614c-1.013-1.013-3.544,7.595-4.051,15.696c-0.506,8.607-1.519,28.354-2.025,31.392c0,1.013-0.506,1.519-1.013,1.519
		c-1.013,0-1.013,1.519-0.506,3.038c0.506,2.025,0,2.531-1.013,2.531c0,2.025,0.506,3.545,0.506,5.569
		c0,2.025-1.013,5.063-2.025,6.076c-2.532,2.025-2.532,4.557-0.506,3.544c1.519-0.506,1.519,1.013,1.519,5.569
		c0,3.038,0,6.076-1.013,6.076c-0.506,0-0.506,3.038-0.506,7.089c0,4.557-0.506,7.595-1.519,8.101c-1.013,1.013-1.013,1.52,0,2.025
		c1.519,1.013,2.025,19.24,0,19.24c-0.506,0-0.506,1.013,0,3.038c0.506,1.519,0.506,5.063,0.506,8.101
		c-0.506,2.532-0.506,7.089-0.506,10.127c0,2.531-0.506,5.063-1.013,5.569c-0.506,0.506-0.506,3.544-0.506,6.582
		c0,3.544-0.506,6.582-1.012,7.595c-1.013,1.519-1.013,2.025,0,2.025c0.506,0,1.012,3.038,1.012,7.595
		c0,4.05-0.506,7.595-1.012,7.088c-0.506-0.506-0.506,1.52,0,4.051c1.012,2.025,1.012,4.557,0.506,5.063
		c-2.025,1.519-3.038,5.569-1.519,9.113c0.506,2.532,0.506,4.557-0.506,6.582c-1.013,2.532-1.013,3.038,0,3.545
		c2.025,0.506,2.025,6.582,0.506,8.101c-1.013,0.506-1.013,5.569,0.506,9.62c1.012,2.025,0.506,2.531-0.506,1.519
		c-1.013-0.506-1.519-0.506-1.519,0.507s0.506,1.519,1.519,1.519c0.506,0,0.506,1.52,0,3.545c-1.013,2.531-1.013,4.05-0.506,4.557
		c0.506,0.506,1.013,24.303,1.013,52.656c0.506,28.86,1.012,57.214,2.025,63.797c3.038,26.834,4.557,36.454,6.076,37.974
		c1.519,1.519,1.519,0.506,1.013-2.532c-1.013-4.05-2.532-17.215-5.063-37.974c-0.506-8.101-1.519-39.492-1.519-78.479
		c0-58.227,0.506-83.543,2.532-119.491c0.506-6.076,1.013-17.215,1.013-24.81c1.519-27.341,4.05-56.201,5.569-64.303
		c-0.506-3.544,1.013-27.341,3.038-46.581C678.806,132.196,678.806,126.121,678.806,125.614z M662.098,103.336
		c0.506,0.507,1.013,1.013,1.519,1.013s0.506-0.506,0.506-1.013c0-1.012-0.506-1.519-1.013-1.519
		C662.098,101.817,662.098,102.324,662.098,103.336z M670.199,121.058c0-0.507,0.506-1.52,0-2.531
		c-0.506-1.52-0.506-1.013-1.013,0.506C669.186,120.551,669.692,121.563,670.199,121.058z M683.869,117.514
		c-1.013-1.52-2.532,0.506-1.013,2.531c0.506,1.519,1.013,1.519,1.519,0C684.375,119.032,684.375,118.02,683.869,117.514z
		 M686.907,109.919c0,0.506,9.62,1.012,21.771,1.519c11.646,0,21.771,0,21.771,0.506c1.013,1.013,41.012,0.507,42.024-0.506
		c0-1.013-6.076-1.519-15.189-1.519c-8.607,0-17.215-0.507-19.746-0.507c-5.57-1.013-3.038-1.013-28.86-0.506
		C696.527,108.906,686.907,109.412,686.907,109.919z M778.55,111.438c2.025,0,3.038-0.507,2.025-1.013c-0.506,0-2.532,0-3.544,0
		C775.513,110.931,776.525,111.438,778.55,111.438z"/>
	<path fill="#FFFFFF" d="M805.382,339.786c-7.595,0-3.038,2.532-4.557,2.532c-8.101,0-6.076-15.189-3.038-56.708
		c3.038-36.455,2.025-60.758-2.532-77.467c-2.532-8.606-7.088-19.239-9.114-19.746c-37.467-7.088-85.567,127.592-30.379,175.692
		c3.544,3.038,6.582,6.075,7.595,7.088c0.506,1.013,4.557,5.063,9.114,9.114c16.202,15.189,19.24,19.746,19.24,30.885
		c0,13.165-9.62,38.987-14.684,38.987c-1.013,0-2.025,0.506-2.025,2.024c0,1.013-1.519,3.038-3.038,4.558
		c-2.025,1.519-4.557,3.544-5.569,4.557c-0.506,0.506-1.519,1.013-1.519,0c0-0.507-0.506,0-1.013,1.519
		c-1.519,3.038-13.164,9.114-22.278,11.646c-7.595,2.025-24.81,3.544-29.367,2.531c-1.519-0.506-2.531-1.013-2.531-2.024
		c0-0.507-1.519-1.013-2.532-1.52c-2.532-1.013-3.544-3.544-1.519-6.582c0.506-1.013,5.063-2.531,9.62-4.051
		c8.101-1.519,13.164-3.544,20.759-7.595c5.063-3.038,17.215-16.202,20.253-22.784c4.557-8.607,6.076-19.746,3.544-25.822
		c-0.506-2.531-5.569-9.113-11.139-14.683c-14.177-14.684-30.379-32.911-36.455-41.012c-4.557-6.582-6.076-9.62-5.569-13.165
		c0.506-0.506,0-1.012-0.506-1.012c-1.013,0-2.532-2.025-4.05-4.558c-2.025-4.05-3.038-6.582-4.557-16.202
		c-0.506-2.025-1.013-4.557-1.013-5.569c-0.506-1.013,0-1.519,1.013-1.519s2.025,1.013,2.025,2.531c0,1.013,0,1.52,0.506,1.52
		c0.506-0.507,0.506-2.532,0-4.051c-0.506-1.52-1.519-2.532-3.038-1.52c-1.519,0.507-1.519-1.013-1.013-12.657
		c0.506-7.595,1.519-15.696,2.025-19.24c1.013-3.038,2.025-8.607,2.532-11.646c1.013-3.544,2.531-7.595,3.038-10.126
		c4.051-9.114,5.063-12.658,5.063-13.671c-0.506-0.506,0-1.013,1.013-1.013c0.506,0,1.013-1.013,1.013-2.025
		s1.012-3.038,2.531-4.557c1.013-1.519,2.025-3.544,2.025-4.557c0-2.025,5.063-10.633,9.62-17.722
		c12.151-17.721,25.316-31.392,35.948-37.467c9.62-5.063,23.797-5.063,35.442,0.506c5.569,3.038,15.696,12.151,15.696,14.684
		c0,0.506,1.013,2.531,2.025,3.544c3.544,3.038,7.088,14.684,7.594,21.771c0.507,3.038,1.014,6.076,2.025,7.089
		c0.507,1.013,0.507,2.025,0,2.025c-1.519,0-1.519,4.05,0,6.582c0.507,0.506,0.507,3.544,0.507,6.075
		C823.609,249.155,818.04,339.786,805.382,339.786z M745.637,191.436c-1.013,0-2.025,0.507-1.519,1.519
		c0.506,1.013,0,1.52-0.506,1.52c-1.012,0-3.544,2.531-6.076,6.075c-2.025,3.038-6.076,8.607-8.607,11.14
		c-3.038,3.544-7.088,9.62-9.114,14.177c-4.557,9.113-6.582,13.671-7.595,14.683c-1.013,0.507-2.531,5.063-6.582,17.722
		c-5.063,14.177-8.607,41.012-6.076,41.012c1.013,0,1.013,0.506,0,2.025c-1.519,1.519-1.519,2.531,0.506,5.063
		c1.519,1.52,2.531,2.532,2.531,2.532c0.506,0,0.506-2.532,0-6.076c0-6.075,3.038-25.822,6.076-37.974
		c2.025-7.595,7.088-21.771,8.607-22.784c0.506-1.013,2.531-5.569,3.038-7.089c0.506-3.544,10.633-20.759,18.228-30.379
		c2.025-3.038,4.557-6.075,5.063-6.582c0-1.013,1.519-2.531,2.532-4.051C747.662,191.942,747.156,191.436,745.637,191.436z
		 M726.903,230.929c-0.506,0-1.013,0.506-0.506,1.013c0.506,1.012,0.506,1.519,0,1.519s-3.038,4.051-5.063,8.607
		c-2.025,5.063-4.05,9.113-4.557,9.113c-0.506,0.507-1.013,1.52-1.013,2.532s-0.506,3.544-1.519,5.569
		c-1.519,3.544-4.05,15.189-7.595,39.999c-0.506,2.025,1.519,5.569,3.038,5.569c0.506,0,0.506-2.025,0.506-4.557
		c0-13.164,4.557-36.961,8.607-45.063c1.013-2.531,2.025-5.569,2.025-6.582c0-1.519,0.506-3.038,1.519-3.544
		c0.506,0,1.013-1.013,0.506-2.025c-0.506-0.507-0.506-1.013,0-1.013c1.013,0,2.532-2.531,3.544-5.063
		C728.928,230.929,728.928,230.929,726.903,230.929z M733.485,222.827c-1.519-1.013-5.063,1.013-4.557,3.038
		c0.506,1.013,0,2.025-1.013,2.531c-0.506,0.507-0.506,0.507,1.013,1.013c1.519,0,2.025-1.013,2.025-3.038
		c0-1.519,0.506-2.531,1.519-2.531S733.485,223.334,733.485,222.827z M751.206,185.359c-1.519,0.507-2.531,2.025-2.531,3.038
		c0,2.532,1.013,2.025,3.038-0.506C754.244,185.359,754.244,184.854,751.206,185.359z M762.852,435.986
		c1.013-1.519,3.038-4.05,4.051-6.582c2.025-5.063,2.531-9.62,1.012-10.632c-1.519-1.013-3.038,2.531-3.038,6.582
		c0,1.519-0.506,3.544-1.013,4.557c-0.506,0.506-1.519,3.038-2.025,4.557C760.826,437.506,761.333,437.506,762.852,435.986z
		 M778.041,423.329c0.506,0,1.013-2.025,1.013-4.051c0-2.531-0.506-4.051-0.506-4.051c-0.506,0-1.013,1.52-1.013,4.051
		C777.028,421.304,777.535,423.329,778.041,423.329z M782.598,435.986c1.012,0,1.519-1.519,1.519-3.037
		c0-2.532-0.506-3.038-1.519-1.013C781.079,434.468,781.079,435.986,782.598,435.986z M787.661,423.835
		c1.013-3.038,1.013-4.557,0-4.557c-0.506,0-1.013,1.013-1.013,1.519c0,1.013-0.506,3.545-1.013,5.57
		C784.623,431.43,786.648,428.898,787.661,423.835z"/>
</g>
<g enable-background="new    ">
	<path fill="#FFFFFF" d="M1005.051,808.253c-0.507-0.507-2.025-0.507-3.545,0c-1.012,0.506-4.051-0.507-6.582-1.52
		c-2.025-1.013-4.557-3.038-5.569-4.051s-2.025-1.519-2.532-2.024c-1.012,0-4.05-3.545-8.101-8.102
		c-3.544-4.051-7.595-9.113-9.113-10.633c-1.013-1.519-3.038-4.557-4.558-7.088c-1.519-2.532-4.05-6.582-5.568-8.607
		c-2.025-2.532-4.051-6.582-5.064-9.62c-3.037-7.595-6.582-15.696-7.594-15.696c-1.014-0.506-5.063,8.102-5.57,10.633
		c0,1.52-5.063,9.62-6.582,10.633c-0.506,0.506-1.519,0.506-2.025,0c-0.506-0.507-0.506,0.506,0,2.025
		c0,1.519-0.506,2.025-1.519,2.025s-2.025,0.506-2.025,1.013c0,0.506-1.013,1.013-1.519,1.013c-1.013,0-2.531,1.012-3.545,2.531
		c-0.506,1.519-2.531,3.038-4.05,3.544c-1.013,0-2.532,1.013-2.532,1.52c0,0.506-1.012,1.013-1.519,0.506
		c-1.013,0-2.025,0.507-2.025,1.013c0,1.013-1.013,1.013-2.024,1.013c-1.52,0-2.532,0.506-2.532,1.013
		c0,1.013-0.507,1.013-1.519,0.506c-1.014,0-2.025,0.507-2.532,1.013c0,1.013-1.013,1.52-1.013,1.013
		c-0.506-0.506-1.519,0-2.025,0.507c-4.051,3.038-28.859,6.075-48.605-1.013c-1.014-1.013-3.039-1.52-4.051-2.025
		c-8.607-1.52-25.316-17.722-28.86-27.341c-1.013-2.025-2.532-4.558-3.544-6.076c-4.05-6.076-17.215-27.848-20.252-43.037
		c-1.013-5.063-3.038-16.708-4.051-26.835c-0.506-3.544-1.013-8.607-1.519-11.646c-0.506-3.037-0.506-9.113-1.013-14.177
		c0-5.063-0.506-14.177-0.506-20.759c-0.506-16.202,3.544-71.391,7.088-90.631c5.063-29.872,11.645-58.227,17.215-74.429
		c8.607-23.29,14.683-38.479,22.278-56.201c7.088-16.202,27.341-46.581,38.986-58.732c10.633-10.633,27.848-20.759,33.923-19.746
		c1.519,0,12.657-2.025,13.164-2.532c0.507-1.013,4.558-1.013,9.114-0.506c14.176,1.519,27.341,9.113,36.455,20.759
		c6.075,7.595,16.201,27.848,15.695,31.898c0,1.012,0.506,1.519,1.013,1.519c0.507,0.506,1.013,1.519,1.013,2.531
		c0,1.52,0.506,3.038,1.012,4.051c1.52,1.519,4.558,14.177,6.076,21.266c4.051,23.29,2.531,72.403-2.531,98.226l-2.531,11.645
		l2.025-19.746c3.037-28.86,3.544-37.974,2.531-36.961c-0.506,0.506-1.013,5.063-1.52,10.633
		c-0.506,8.101-2.025,18.733-5.568,41.012c-2.025,9.62-7.09,27.848-12.152,43.037c-2.531,6.582-6.076,13.164-7.595,13.164
		c-0.507,0-1.013,1.013-1.013,2.531c0,1.013-0.506,2.025-1.013,2.025s-1.519,0.506-1.519,1.519c0,2.025-11.139,12.152-13.164,12.152
		c-1.014,0-5.063,0.506-10.127,1.013c-8.607,1.519-15.189,0.506-17.215-2.532c-1.012-1.013-2.531-2.025-4.051-3.038
		c0,0-8.607-6.075,18.734-10.632c1.013,0,4.557-2.025,7.595-5.57c9.114-8.606,15.189-24.81,22.784-57.214
		c3.038-15.189,6.582-67.34,5.569-82.529c-0.507-6.582-1.013-13.164-1.013-15.189c-0.506-1.519-0.506-3.544-1.013-4.557
		c-0.506-0.507-1.013-4.051-1.519-8.102c-2.025-10.633-11.139-38.986-13.164-38.986c-0.507,0-1.014-0.506-1.014-1.519
		c0-1.52-1.518-3.544-9.619-11.646c-4.051-4.557-5.063-4.557-10.633-5.063c-3.038,0-5.569,0.507-6.076,1.013
		c0,0.507-1.519,1.013-3.037,1.52c-2.025,0.506-3.545,1.519-3.039,2.025c0.507,0.506-1.012,1.012-2.531,1.012
		c-2.025-0.506-2.531,0-2.531,1.013c0.506,1.52,0,1.52-2.025,1.013c-2.531-0.506-3.037-0.506-2.531,1.52
		c0.506,4.051-1.013,6.075-3.038,3.544c-1.013-1.013-2.025-1.519-2.025-1.013c-0.507,0-2.025,2.025-3.544,4.557
		c-2.025,2.532-3.545,4.051-3.545,3.545c0-1.013-1.012,1.013-3.037,3.544c-1.52,2.531-3.038,5.063-3.038,5.569
		c0,1.013,4.05-3.038,5.569-5.569c2.025-3.038,9.113-9.62,9.62-9.114c0,0.507-2.025,3.545-5.063,7.089
		c-9.113,10.633-9.619,11.139-17.215,22.784c-12.151,20.253-18.733,34.43-28.354,60.252c-13.164,35.442-18.733,58.227-23.291,93.162
		c-2.025,12.658-5.568,60.758-5.063,63.29c0,0.506,0.506,5.569,0.506,11.139c-0.506,19.24,3.038,54.683,6.076,67.34
		c0.506,1.52,2.025,7.595,3.038,13.165c1.013,6.075,2.531,11.139,3.038,11.645c0.506,1.013,3.544,9.62,3.544,11.14
		c0,0.506,1.519,3.544,3.038,7.088c2.025,3.545,3.544,6.582,3.544,7.089c0,0.506,1.519,3.038,4.05,6.582
		c2.025,3.038,5.064,7.088,6.076,9.113c1.52,2.025,3.038,3.545,3.545,3.545c1.012,0,1.519,1.013,2.025,2.531
		c1.012,1.519,1.519,2.531,8.607,4.557c0.506,0,2.025,1.013,6.582,1.013s5.568,0.507,9.619,0c6.076-0.506,9.621-4.051,18.229-18.733
		c8.101-13.671,19.746-52.657,19.746-64.809c-0.507-5.569,1.519-8.607,3.037-5.569c1.52,3.544-2.531,33.923-6.075,44.556
		c-0.507,2.531-1.519,6.582-1.519,8.101c0,3.545,0,3.545,1.519,1.52c3.038-4.051,8.101-25.822,9.113-43.037
		c1.013-8.607,1.519-12.658,3.038-14.177c2.531-3.038,2.531-6.076,0.506-8.102c-1.012-1.013-1.519-1.013-1.519,0.507
		c0,1.013-1.013,2.025-1.519,2.531c-1.013,0.507-1.013,0-0.507-1.519c1.013-2.025,0.507-2.025-2.531,0.506
		c-1.519,1.013-3.038,1.52-4.051,1.013c-0.507-0.506-3.038,0-5.063,0.507c-8.607,3.037-30.885-1.013-29.872-5.063
		c0-1.519-0.507-2.025-2.025-2.025c-2.025,0.507-2.025,0,0-2.025c1.519-2.531,3.038-2.531,10.633-2.531
		c4.557,0,11.139-0.507,14.177-1.52c28.859-7.595,30.885-31.392,33.924-27.341c0,0.507,10.632,1.013,9.113,3.544
		c-2.531,4.558-2.531,4.558-0.507,4.051c1.519-1.013,3.544-2.531,5.063-4.051c-9.62-1.519,5.063-2.531,4.051,0.507
		c-1.013,1.519-0.507,1.519,1.012,0.506c1.52-1.519,3.545,0,3.545,2.532c0,0.506,0.506,1.519,1.013,1.519
		c1.519,0,1.013,3.544-2.025,11.646c-7.089,18.228-9.114,35.948-6.582,61.771c0.507,5.569,1.013,11.139,1.013,12.658
		c0,1.013,0.506,3.038,1.013,3.544c0.506,0.507,0.506,2.025,0.506,3.544c0,1.52,0.507,2.532,1.013,2.532
		c0.506,0.506,0.506,1.519,0,2.531s0,2.531,0.506,3.038c0.507,0.506,1.014,2.025,1.014,3.038c0,1.519,0,2.531,0.506,2.531
		s1.013,1.013,1.013,2.025c-0.507,2.531,1.519,9.113,3.038,13.671c1.012,1.519,1.519,4.05,2.025,5.063
		c0,1.013,1.012,2.025,1.519,2.025s0.507,1.013,0.507,2.025c0,2.025,1.519,6.076,4.051,9.113c3.037,4.558,5.568,9.114,5.568,9.62
		c0,0.507,0.507,1.013,1.52,2.025c0.506,1.013,2.531,3.544,4.051,6.076c4.557,6.075,7.088,8.607,9.113,9.113
		c1.013,0,1.52,0.507,1.52,1.52c0,0.506,1.012,1.013,2.025,0.506c1.518,0,2.531,0,2.531,0.507c0,0.506,0,1.519,0,3.037
		C1012.139,805.721,1007.076,809.266,1005.051,808.253z M806.068,627.497l1.519,4.051l1.012-3.544
		c0.506-1.52,1.013-5.569,1.013-8.607c-0.506-3.545-1.013-6.582-1.519-7.595c-0.506-1.013-0.506-2.025,0.506-3.545
		c1.013-1.519,1.519-3.544,1.013-5.569s-0.506-4.05-0.506-4.557c0,0-0.506-1.013-1.013-1.519c0-0.507-1.012,3.037-2.025,7.595
		c-1.013,5.569-1.013,8.607,0,9.113c0.506,1.013,0.506,3.038,0,6.076C805.055,622.435,805.562,625.472,806.068,627.497z
		 M809.612,637.117c0-2.531-1.013-4.051-2.025-4.557c-1.519-0.507-2.025,0.506-2.025,5.063c-0.506,3.544,0,6.075,0,6.582
		C806.574,646.737,809.612,640.661,809.612,637.117z M808.093,595.093c1.013,0,1.519-1.519,2.025-5.569s0-6.076-1.013-6.076
		c-1.013-0.506-1.013-0.506,0-1.012c1.519-1.013,2.532-8.607,1.013-9.62c-1.013-1.013-1.013-1.52,0-3.545
		c1.013-1.519,2.025-4.557,2.025-6.075c0.506-3.038,0.506-3.545-1.519-4.051c-2.025,0-2.025,1.013-3.544,16.708
		c-0.506,9.62-1.013,17.722-1.013,18.228C806.574,594.587,807.081,595.093,808.093,595.093z M811.131,649.775
		c0-1.52-0.506-3.038-1.013-3.544c-2.025-1.52-3.544,1.013-3.038,3.544C807.587,653.319,810.625,653.319,811.131,649.775z
		 M809.105,653.826c-0.506,0-0.506,1.013-1.013,2.531c0,2.531,1.519,3.038,2.532,0.506
		C811.637,655.345,810.625,653.826,809.105,653.826z M810.118,555.094c0.506,0,1.519-1.013,2.532-2.025
		c1.013-2.025,1.519-3.037,0-4.557c-1.013-2.531-1.519-2.531-2.025-1.013C809.612,550.031,809.105,555.094,810.118,555.094z
		 M814.675,686.736c0,0,0-1.519-0.506-2.531c-0.506-1.52-1.013-1.52-3.038-0.507c-1.519,1.013-2.025,1.013-0.506,2.025
		C812.144,687.243,814.675,687.749,814.675,686.736z M811.637,541.424c-0.506,4.05,2.025,4.557,3.038,0.506
		c0-1.519,0-3.038-1.013-3.544C812.144,537.879,811.637,538.386,811.637,541.424z M812.144,534.841c0,1.013,0.506,1.52,1.519,2.025
		c1.013,0,1.519,0,1.519-0.506c0,0-0.506-1.013-1.519-2.025C812.65,532.816,812.144,533.322,812.144,534.841z M813.663,530.791
		c1.013,0,2.025-2.025,3.038-4.051c0.506-2.531,1.013-5.063,1.013-6.582c-0.506-3.038-2.025-1.013-2.531,3.038
		c0,2.025-1.013,4.557-1.519,4.557C812.144,528.766,812.144,530.791,813.663,530.791z M822.776,493.83
		c-1.013-0.507-0.507-1.013,0-1.52c1.519-0.506,4.557-8.101,5.569-14.684c0-2.024,1.52-5.569,2.531-7.595
		c1.013-2.024,2.025-5.063,2.531-7.595c0-2.531,1.52-7.088,3.545-10.126c1.52-3.038,3.038-6.582,2.531-8.101
		c0-1.013,0.507-3.038,1.52-4.051c1.012-1.013,4.557-9.62,6.582-16.202c0-0.507,1.012-2.532,2.531-4.557
		c1.013-2.025,2.025-4.558,2.025-5.063c-0.506-1.013,0-2.531,1.013-3.544c0.507-0.507,2.025-3.038,3.038-5.57
		c3.544-7.088,10.633-20.252,12.151-22.277c1.013-0.507,3.544-5.063,6.582-9.62c2.532-4.557,5.569-9.113,7.089-10.126
		c2.025-2.025,10.633-12.658,10.633-13.671c0-2.025-2.532-0.507-4.051,2.025c-0.506,1.519-2.025,3.038-3.038,3.038
		c-1.013,0.506-3.038,2.531-4.051,5.063c-1.519,2.532-3.038,4.558-3.544,4.558c-0.506-0.507-2.025,2.024-3.545,5.569
		c-1.519,3.037-3.037,5.569-3.543,5.063c-0.507,0-2.025,1.52-3.039,3.545c-1.519,2.024-3.037,4.05-4.05,4.557
		c-0.507,0.506-3.038,4.557-5.063,9.113c-2.025,4.558-4.557,9.114-5.063,10.127c-1.014,1.519-2.025,3.544-2.532,5.063
		c-0.507,1.52-1.519,3.545-2.532,5.063c-1.012,1.013-2.024,3.038-2.024,4.051s-1.013,3.038-2.025,5.063
		c-1.013,1.52-2.025,4.051-2.025,5.063s-1.013,3.544-2.025,5.063c-1.013,2.025-1.519,3.544-1.519,4.051
		c0.506,0.506-0.506,2.531-1.52,3.544c-1.012,1.519-2.025,4.051-2.025,5.569s-1.012,5.063-2.025,7.089
		c-1.012,2.024-3.037,7.595-4.557,12.151c-1.012,5.063-3.037,9.113-3.544,10.126c-0.507,0.507-1.013,2.025-0.507,3.038
		c0,1.013,0,2.531-0.506,3.544c-0.506,0.507-1.012,1.52-1.012,2.532c-0.507,1.013-1.52,4.05-2.025,7.088
		c-1.013,3.038-2.026,7.595-2.532,10.633c-0.506,2.531-1.013,5.569-1.519,6.076c-1.519,2.025-1.519,9.62,0,10.126
		c1.013,0,2.025-1.013,2.025-2.531c0-1.013,1.013-6.076,2.532-10.633C823.789,497.374,823.789,494.842,822.776,493.83z
		 M819.738,645.219c-1.519-26.329-1.519-47.088,0-71.391c1.52-20.76,1.52-23.797,0.506-16.709
		c-3.544,19.746-4.557,83.542-1.519,100.251C819.738,663.446,820.245,657.37,819.738,645.219z M821.764,671.547
		c-0.506-1.519-0.506-2.531-1.013-2.531c0,0-0.506,1.013-0.506,2.531c0,1.013,0.506,2.025,1.013,2.025
		C821.764,674.078,821.764,672.56,821.764,671.547z M825.814,524.209c0-1.013-1.014,2.531-2.531,9.113
		c-1.52,6.076-2.025,11.646-1.52,12.658C822.776,547.499,826.32,528.766,825.814,524.209z M823.789,683.698
		c-1.013-2.025-1.013-1.519-1.013,1.013c-0.507,1.52,0,3.545,0.507,4.051C824.295,690.28,824.801,686.23,823.789,683.698z
		 M826.32,520.664c0.506,0,1.52-2.025,1.52-4.05c0.506-6.583,6.075-29.873,11.139-45.569c3.037-9.113,3.544-12.657,2.531-11.139
		c-1.013,0.507-7.088,19.746-7.595,22.278c0,1.013-0.507,4.05-1.519,7.088c-2.531,7.595-6.582,25.316-7.089,28.86
		C825.308,520.158,825.814,521.171,826.32,520.664z M825.814,609.776c0.506,15.695,1.012,22.784,1.519,21.771
		c0.507,0,0.507-6.582,0.507-14.177c-0.507-8.102,0.506-27.341,1.519-43.037c1.519-15.695,2.025-28.354,1.519-27.848
		C829.358,547.499,825.814,594.08,825.814,609.776z M829.865,655.345c0-2.025-0.507-7.595-1.014-12.151
		c-0.506-5.063-1.012-8.607-1.519-8.607c-0.507-0.507-1.013,1.013-0.507,2.531c0,1.52,0.507,7.089,1.014,12.151
		c0,5.57,1.012,10.127,1.519,10.127S829.865,657.876,829.865,655.345z M892.142,371.808c-3.038,2.531-21.771,34.936-21.771,37.467
		c0,1.013-0.507,2.025-1.519,2.532c-0.507,1.012-2.532,5.063-4.558,9.619c-1.519,4.558-4.05,9.114-4.557,10.127
		s-1.519,3.038-2.025,4.557c0,1.519-1.013,3.544-1.013,4.557c-4.051,8.102-16.708,50.126-19.746,63.29
		c-1.52,8.101-5.063,30.379-5.063,33.417c-0.506,5.063,0.507,1.013,3.544-15.189c2.025-8.607,3.545-17.215,4.051-19.747
		c0.507-2.024,1.52-6.582,2.531-9.619c1.014-3.038,2.025-7.089,2.025-8.607c2.025-8.102,11.646-36.962,18.734-52.657
		c2.531-6.582,5.063-12.658,5.569-14.177c0.507-2.025,1.519-3.545,2.025-4.558c1.013-1.012,2.531-3.544,3.544-6.075
		c1.52-5.063,13.671-25.316,15.695-27.341C892.142,376.87,893.66,370.288,892.142,371.808z M843.535,455.35
		c0.506,0,2.025-3.038,3.038-6.582c3.038-7.595,3.544-12.151,1.013-7.089c-1.013,2.025-2.025,5.063-2.531,6.582
		c-0.507,2.025-1.52,4.558-2.025,6.076C842.522,455.35,842.522,455.855,843.535,455.35z M860.75,411.807
		c-1.013,0.506-3.038,4.05-4.557,7.595c-1.52,3.544-3.038,7.088-3.545,7.595c-0.506,0.506-1.519,3.544-2.025,6.075
		c-1.012,4.557-1.012,5.063,0.507,3.038c1.013-1.013,2.025-3.038,2.025-4.557c0-1.52,1.013-4.051,2.025-5.569
		c1.013-2.025,3.038-6.076,4.557-9.62C861.763,411.807,862.27,410.794,860.75,411.807z M862.775,409.781
		c0.506,0,1.013-1.52,2.025-3.038c0.506-2.025,2.531-6.076,4.557-9.62s3.544-7.595,3.038-8.102c0-1.012-1.519,1.013-3.038,4.051
		s-4.051,7.595-5.063,10.127C861.256,408.769,861.256,409.274,862.775,409.781z M874.927,385.984c0,0,1.013-1.013,1.519-2.025
		c1.014-1.52,1.52-2.532,1.014-2.532c-0.507,0-1.014,1.013-2.025,2.532C874.927,384.972,874.42,385.984,874.927,385.984z
		 M942.268,740.912c0-2.025,0-2.025-1.014-1.013c-1.519,2.532-2.025,5.063-0.506,4.558
		C941.254,743.95,942.268,742.432,942.268,740.912z M942.268,642.687c-0.507,0-1.52,0.507-1.52,1.013c0,0.507,0,1.013,0.506,1.013
		c0.507,0,1.014-0.506,1.52-1.013C942.773,643.193,942.773,642.687,942.268,642.687z M971.633,500.918
		c-2.531,19.746-12.657,54.176-18.227,62.277c-3.038,4.05-3.545,5.569-1.52,4.557c0.507,0,1.014-1.013,1.014-2.025
		s1.012-1.519,2.024-2.025c1.013-0.506,1.519-1.519,1.519-2.531c0.507-0.507,1.014-1.52,1.52-1.52s1.52-1.519,2.025-3.037
		c4.557-10.127,6.582-16.202,7.595-20.76c0.507-2.531,2.025-8.101,3.038-11.645c4.051-15.696,9.619-55.695,7.594-57.214
		C976.697,465.476,976.697,465.476,971.633,500.918z M967.583,573.828c0,1.012-0.507,2.531-1.519,3.037
		c-1.014,1.013-2.025,2.025-2.025,2.532c0,0.506-1.52,2.025-3.038,3.544s-3.038,2.531-3.038,2.531
		c0.506-1.519,4.557-7.595,5.063-7.595c0.507,0,2.025-1.519,3.039-3.038C967.076,572.815,968.09,572.309,967.583,573.828z
		 M976.697,557.119c-3.545,9.114-7.596,16.709-7.596,14.177c0-0.506,1.52-4.051,3.545-8.101c4.051-9.62,6.582-17.215,10.633-31.898
		c1.519-6.582,3.543-12.151,3.543-12.151C989.354,517.12,982.266,542.942,976.697,557.119z M971.633,543.448
		c0.507-0.506,2.532-6.582,4.558-13.67c2.024-7.089,4.557-18.228,5.569-23.797c2.025-11.14,5.569-46.581,4.051-45.568
		c-0.506,0.506-1.52,7.088-2.531,15.695c-0.507,8.102-1.52,16.709-2.025,19.24c-0.507,2.531-2.025,9.62-3.039,15.695
		c-1.012,6.076-2.531,13.671-3.543,16.202C973.152,533.829,971.127,543.955,971.633,543.448z M977.709,452.312
		c1.013,0,2.025-1.013,2.025-1.519c0-1.52-0.506-2.025-1.52-1.52C976.19,449.78,975.684,451.806,977.709,452.312z M976.697,460.919
		c-0.507,2.025,0,2.531,1.012,2.531c1.013-0.506,2.025-2.024,2.025-3.544C980.24,455.855,977.709,456.868,976.697,460.919z
		 M984.798,452.312c0,1.519,0.507,3.038,1.013,2.531c0.506-0.506,1.012-1.519,1.519-2.531c0-0.506-0.507-2.025-1.013-2.025
		C985.811,449.78,985.305,450.793,984.798,452.312z M992.393,455.855c-0.506,1.013-1.013,2.025-0.506,3.038
		c0.506,2.532,1.012,2.025,1.519-1.519C993.405,455.35,993.405,454.843,992.393,455.855z M992.393,449.78
		c1.013,2.025,1.519,2.025,1.013-0.507c-0.507-1.013-1.013-1.519-1.013-1.013C991.887,448.261,991.887,449.273,992.393,449.78z"/>
	<path fill="#FFFFFF" d="M1211.123,607.244c0,7.596-3.544,46.075-5.569,57.214c-1.013,6.583-2.025,13.671-2.025,16.202
		c0,3.038,0,4.051-1.013,3.038c-0.506-1.013-0.506-0.506,0,1.52c0,2.025,0,3.544-1.52,4.05c-1.012,0.507-1.519,2.025-1.519,3.038
		c0,2.532,0,2.532,1.013,1.013c1.013-1.013,1.013-1.013,1.52,0c0,0.507-1.014,1.52-2.025,2.025c-1.013,0.507-1.52,1.519-1.013,2.025
		c0.506,1.013-1.519,5.569-3.038,6.582c-0.506,0.506-2.025,3.544-3.545,6.582c-3.037,7.089-10.632,14.684-16.201,17.215
		c-11.646,5.569-20.253,7.089-29.367,5.063c-8.101-1.52-17.215-9.62-23.29-21.266c-10.633-19.746-13.671-35.442-14.177-73.922
		c0-23.797,1.013-49.113,3.544-65.315c0.507-3.038,0-6.582-2.025-11.646c-1.519-4.05-3.038-10.126-3.544-14.177
		c-1.52-12.151-1.52-12.151-9.113-4.557l-6.582,6.076v26.834c-0.507,28.86-2.025,43.544-7.596,72.404
		c-2.025,10.126-3.544,18.733-3.037,19.746c0,1.013,0,1.519-0.507,1.013c-1.013-0.507-7.089,15.695-7.595,19.24
		c0,1.013-0.506,1.013-0.506,1.013c-0.507-0.507-2.025,1.519-3.038,4.05c-1.013,2.532-2.532,4.557-3.038,4.557
		s-2.025,2.025-3.038,3.545c-1.013,2.025-2.531,3.544-3.038,3.544c-1.519-0.506-10.126,2.025-15.189,3.544
		c-2.531,1.013-7.088,2.025-9.619,2.025c-6.076-0.506-14.684-3.038-14.684-4.557c0-0.507-1.013-1.013-2.025-1.013
		s-4.051-1.519-6.076-4.051c-10.126-10.633-17.721-28.354-20.759-47.594c-2.025-14.683-1.519-45.063,1.519-62.276
		c2.025-13.165,7.089-32.911,9.114-35.949c0-0.506-1.013-4.05-3.038-8.607c-3.544-6.075-4.051-8.607-4.051-16.708
		c0-10.633,1.52-16.202,7.596-26.329c5.063-8.101,19.746-21.265,25.315-22.277c22.784-4.557,36.454,0.506,47.594,17.215
		c2.025,3.038,4.05,6.582,4.05,6.582c0,0.506,0.507,2.531,1.52,4.557c2.531,6.582,7.088,23.291,7.088,26.835
		c0,2.025,0.507,3.544,1.52,3.544c0.506,0,4.557-3.544,8.607-7.595c7.595-7.595,7.595-7.595,10.633-19.24
		c3.544-14.683,10.633-28.859,19.24-38.986c9.619-11.645,13.164-13.164,25.822-13.164c8.101,0,11.139,0.507,16.708,3.038
		c6.582,3.038,13.671,9.62,14.177,12.658c0,0.506,0.506,1.013,1.013,0.506c0.507,0,1.013,0,1.013,1.013s1.013,2.531,2.025,3.544
		c1.013,0.507,1.52,2.025,1.013,2.532c-0.507,0.506,0,1.519,1.519,2.531c1.013,1.013,1.52,2.531,1.52,4.051
		c-0.507,1.519-0.507,2.531,0,2.531c0.506,0,1.012,1.013,1.012,2.025c0,0.506,0.507,1.519,1.014,1.519
		c1.519,0,1.519,1.013,4.05,9.114c3.038,10.126,3.038,12.151,2.025,13.67c-1.013,0.507-1.013,1.013,1.013,1.013
		c1.013,0,1.52,0.507,1.52,1.013c-0.507,0.507-0.507,1.013,0,2.025c2.025,2.532,2.531,7.595,1.012,7.595
		c-1.012,0-1.012,0.507,0,1.013c3.038,2.025,5.57,50.126,5.57,50.126c1.012,15.695,0.506,21.771-0.507,21.771
		c-0.507,0-1.013-2.532-1.013-5.569c0-3.038-0.506-5.57-1.013-5.063c-0.506,0.506-2.024,31.392-1.519,37.974
		c0,1.519-0.506,2.025-1.013,2.025s-1.013,3.544-1.013,7.595s-0.506,11.139-0.506,15.189c-1.014,6.076-0.507,6.582,0,3.038
		c1.519-7.089,5.063-37.468,5.063-46.581c0-4.051,0.506-7.595,1.013-7.595S1211.123,605.726,1211.123,607.244z M1009.103,559.65
		c-1.519-1.012-3.544,3.545-4.557,10.127c0,2.025-0.507,5.569-1.013,7.088c-1.013,4.558-4.051,31.392-4.051,35.949
		c0,6.075,1.013,5.063,2.025-1.52c0-3.038,0.506-5.569,1.013-6.075c0.507-0.507,1.013-4.051,1.013-7.089
		c0.506-7.595,5.063-32.91,6.076-35.948C1010.115,561.17,1009.609,560.157,1009.103,559.65z M1002.014,623.447
		c-1.012-0.507-1.519-1.52-0.506-2.532c0.506-1.013,0-1.519-0.506-0.506c-1.52,0.506-1.52,3.038-0.507,7.595
		c0,0.506,1.013-0.507,1.519-1.52C1003.027,624.966,1003.027,623.953,1002.014,623.447z M1003.533,523.702
		c0-2.025,1.519-7.088,3.544-11.646c3.038-8.101,2.025-11.139-1.013-3.544c-4.051,8.607-5.569,13.164-5.569,16.202
		C1000.495,528.766,1002.521,528.259,1003.533,523.702z M1009.609,524.715c0-1.013-0.507-0.506-0.507,1.52
		c0,2.024,0.507,3.037,0.507,2.024C1010.115,527.753,1010.115,525.728,1009.609,524.715z M1014.672,600.156v-14.177l-1.013,11.139
		c-0.506,10.126-0.506,17.722,1.013,17.722C1014.672,614.84,1014.672,608.257,1014.672,600.156z M1017.203,567.245
		c-1.012,0-2.531,9.62-2.025,14.684c0,5.063,0.507,3.038,2.025-6.582C1017.71,570.79,1017.71,567.245,1017.203,567.245z
		 M1020.242,516.614c0.506-1.52,0-1.013-1.014,0.506c-1.519,3.544-4.051,13.164-2.531,11.646c0.506-0.507,1.52-2.531,2.025-5.063
		C1019.229,521.171,1019.735,518.133,1020.242,516.614z M1028.343,531.804c0.507,0,2.024,0.506,3.038,1.013
		c1.519,1.519,1.519,4.05,1.012,14.177c-1.012,12.151-1.012,12.657,1.014,10.633c2.025-1.52,2.025-1.52,1.519,0.506
		c-0.507,1.013-0.507,2.025,0,2.531c1.519,1.52,17.215,0.507,24.304-1.519c10.632-3.544,12.657-5.063,12.657-10.633
		c0-9.113-5.569-31.392-10.126-39.492c-4.051-7.089-10.127-15.189-12.658-16.709c-2.025-1.519-7.088-0.506-7.088,1.013
		c0,0.507-2.025,3.038-5.063,5.063c-5.063,3.544-10.633,10.126-6.583,7.595c0.507-0.507,1.014,0,0.507,1.013
		s-1.013,2.025-2.024,2.025c-0.507,0-0.507,0.506,0,1.519c0.506,0.506,0,1.013-0.507,0.506c-1.519-1.013-7.089,8.607-8.101,14.684
		c-1.014,4.051-0.507,4.557,3.037,5.063C1025.811,531.297,1027.836,531.804,1028.343,531.804z M1026.824,600.156
		c0-3.544-1.52-1.013-2.025,2.531c-0.507,2.532,0,3.038,0.506,1.52C1026.317,603.194,1026.824,601.169,1026.824,600.156z
		 M1025.811,596.612c0.507-0.507,1.014-6.076,1.014-13.671c-0.507-11.139-0.507-11.646-1.52-6.076
		C1024.292,586.992,1024.292,597.118,1025.811,596.612z M1028.85,549.524c1.012-1.519,1.518-5.569,2.024-9.113
		c0.507-3.545,0-4.558-0.507-3.038c-0.506,2.025-1.012,6.075-1.518,9.113C1028.343,550.537,1028.343,551.55,1028.85,549.524z
		 M1059.229,658.889c3.543-10.633,9.619-34.936,11.139-44.049c0-3.038,1.012-9.62,1.519-14.178
		c1.519-9.113,2.025-37.974,1.013-37.974c-0.506,0-3.544,1.013-6.582,2.025c-7.088,3.038-15.695,4.557-23.797,5.569
		c-3.545,0-7.088,1.013-8.102,1.52c-1.012,1.519-1.519,1.013-2.025,0c-1.519-4.558-2.025,2.531-2.025,21.771
		c0,17.721,4.051,55.188,4.051,55.694c0.507,3.545,1.014,8.102,1.014,10.127l3.037,15.189c1.013,0,1.52,0.506,1.52,2.025
		c0,2.025,2.531,9.62,3.037,9.62c0.507,0,2.025-1.013,4.051-3.038C1051.127,679.648,1054.164,673.065,1059.229,658.889z
		 M1058.215,677.623c-0.506-1.013-1.012-2.025-1.012-2.025c-0.507,0-0.507,1.013-0.507,2.025s0.507,1.519,1.013,1.519
		S1058.722,678.636,1058.215,677.623z M1077.962,560.663c-1.013-0.506-1.013,3.545-1.013,14.684c0,21.266-5.57,61.265-9.62,70.885
		c-0.507,1.519-1.519,5.569-2.532,8.607c-0.506,3.037-2.531,8.607-3.543,11.645c-1.52,3.038-2.532,6.076-2.532,7.089
		c0,3.038,5.063-6.076,7.595-14.684c3.544-10.633,7.595-27.341,10.127-43.543C1078.468,599.649,1079.986,562.183,1077.962,560.663z
		 M1081,649.269c0-1.013-0.507-0.506-0.507,1.52c0,1.519,0.507,2.025,0.507,1.519C1081.506,651.294,1081.506,649.775,1081,649.269z
		 M1081.506,606.232c0,5.063,0.506,5.063,1.52-0.507c0.506-2.025,0.506-4.051-0.507-4.051
		C1082.012,601.675,1081.506,603.7,1081.506,606.232z M1082.519,644.712c-0.507-1.013-1.013-1.013-1.013,0.507
		c0,1.013,0.506,2.025,0.506,1.519C1082.519,646.231,1082.519,645.219,1082.519,644.712z M1089.607,584.46v-14.177l-1.014,19.24
		c-0.506,16.202-3.543,39.493-5.568,42.024c0,0.506,0,2.025,0.506,3.038c1.013,2.531,2.025-1.013,4.557-21.771
		C1089.101,605.22,1089.607,592.562,1089.607,584.46z M1083.025,588.005c0,4.05,0.506,6.075,0.506,4.05
		c0.506-2.024,0.506-5.063,0-7.088C1083.531,582.941,1083.025,584.46,1083.025,588.005z M1083.025,597.625
		c0,1.013,0,2.024,0.506,1.519s0.506-1.519,0-2.531C1083.025,596.105,1083.025,596.105,1083.025,597.625z M1083.531,638.637
		c-0.506-1.013-0.506-0.507-0.506,1.519c0,1.519,0,2.025,0.506,1.013C1084.037,640.661,1084.037,639.143,1083.531,638.637z
		 M1118.467,572.309c-0.506,0-1.519,0.507-1.519,2.025c0,1.013,0,3.038-0.507,4.557c-3.037,22.278-3.037,77.973,0,77.973
		c0,0,0-11.645,0-26.328c0-14.177,0.507-26.328,0.507-26.835c0.507-0.506,1.013-4.557,1.013-8.607
		c0-3.544,0.506-10.633,1.012-15.189C1119.479,574.84,1119.479,572.309,1118.467,572.309z M1128.087,485.223
		c-0.507-5.57-13.164,20.252-13.164,26.328c0,4.557,2.025,1.519,6.582-11.139c2.532-6.076,4.558-11.646,5.569-12.152
		C1127.58,487.754,1128.087,486.234,1128.087,485.223z M1124.543,583.954c-1.013,6.582-1.52,22.278-1.013,21.266
		c0.507,0,1.013-6.582,1.013-14.177C1125.049,581.929,1125.049,579.397,1124.543,583.954z M1124.037,608.257
		c-0.507-1.519-0.507-0.506-0.507,2.025c0,2.025,0,3.038,0.507,2.025C1124.543,611.295,1124.543,609.27,1124.037,608.257z
		 M1131.125,625.979c-1.52-1.52-1.52,0.506-1.013,9.113l1.013,9.114v-9.114C1131.631,630.535,1131.631,626.484,1131.125,625.979z
		 M1130.619,608.257c0,9.114,0.506,13.165,0.506,8.607c0.506-4.05,0.506-11.645,0-16.202
		C1131.125,595.6,1130.619,599.144,1130.619,608.257z M1132.138,578.891c0-1.519-0.507,0-0.507,2.532
		c0,3.037,0.507,4.557,0.507,3.037C1132.645,582.941,1132.645,580.41,1132.138,578.891z M1183.275,638.13
		c0.506-5.063,1.013-11.646,1.013-13.671c2.025-19.239,0-78.479-2.531-92.655c-3.544-15.696-5.063-23.797-6.582-27.342
		c-1.013-2.025-2.025-4.557-2.025-5.569c0-2.531-7.089-17.721-10.126-21.771c-1.52-2.025-3.545-4.051-4.557-4.051
		c-2.025,0-17.722,17.722-13.165,22.278c2.025,1.519,2.025,2.531,0.507,7.088c-5.57,20.76-8.102,45.063-5.063,52.657
		c1.013,2.025,3.544,4.557,6.075,6.076l4.051,3.038l5.57-6.076c5.063-5.569,6.582-6.582,11.139-6.582
		c3.037-0.507,5.569-0.507,5.569,0c0,0.506-3.038,4.051-6.582,8.101c-3.544,3.545-6.583,7.089-6.583,7.595
		c0,1.52-11.139,6.076-17.721,6.583c-3.544,0.506-6.582,1.012-7.088,1.012c-1.013,1.52-1.52,63.29,0,77.467
		c4.051,39.999,18.733,62.783,23.291,62.783c0.506,0,2.531-1.519,4.557-3.544C1172.137,701.926,1180.238,672.56,1183.275,638.13z
		 M1138.72,525.728c0.507,0,1.013-1.519,1.013-3.038c0-1.519,0-3.038-0.506-3.038c0,0-0.507,1.52-1.014,3.038
		C1138.213,524.209,1138.213,525.728,1138.72,525.728z M1140.238,516.614c0,2.024,2.025-4.558,4.051-13.671
		c0.506-1.519,0.506-2.531,0-2.025C1142.771,501.931,1139.732,514.082,1140.238,516.614z M1191.883,599.649
		c-1.012,0-1.519,3.038-2.025,7.595c-0.506,31.393-5.569,70.379-9.113,80.505c-2.025,4.051-2.025,4.557-0.506,4.557
		c0.506,0,1.519-1.519,2.025-4.05c2.531-6.583,6.075-23.798,7.088-30.38c0-3.544,1.013-11.139,1.52-16.708
		C1192.896,626.484,1193.402,599.649,1191.883,599.649z M1190.364,596.105c0.507,1.52,1.519,2.025,1.519,1.52
		c0.506-0.507,0-1.013-0.506-2.025C1189.857,594.587,1189.857,594.587,1190.364,596.105z M1198.465,650.788
		c0-1.013-1.012-1.52-1.519-1.52s-1.013,1.013-1.013,2.025s0.506,1.52,1.013,1.013
		C1197.453,652.307,1198.465,651.294,1198.465,650.788z M1200.49,602.182c-0.506,0-1.013,6.582-1.519,14.683
		c-0.507,8.607-1.013,18.734-1.519,23.291c-0.507,4.051-0.507,7.089,0,7.089c0.506-0.507,1.012-6.583,2.024-13.165
		C1200.996,619.396,1201.503,603.194,1200.49,602.182z M1202.01,595.093c0-4.05-2.025-3.544-2.532,1.013
		c0,2.025,0.507,3.038,1.013,2.532C1201.503,598.638,1202.01,596.612,1202.01,595.093z M1202.516,664.458
		c-0.506-0.506-0.506,0-0.506,1.52c0,2.025,0,2.531,0.506,1.519C1203.021,666.99,1203.021,665.471,1202.516,664.458z"/>
	<path fill="#FFFFFF" d="M1339.223,647.244c-2.025,10.126-3.037,18.733-2.531,19.746s0.506,1.013-0.506,0.506
		c-1.014-0.506-1.52,0-1.52,2.025c0,3.038-2.025,9.62-3.544,9.62c-0.507,0-1.013,1.519-0.507,3.038c0,2.025-0.506,3.544-1.519,3.544
		c-0.507,0-1.013,0.507-0.507,1.52c0.507,0.506,0.507,1.013-0.506,1.013c-0.506,0-1.519,1.519-1.519,3.544
		c-0.507,1.519-2.025,4.557-3.544,6.075c-1.52,2.025-2.532,4.051-2.025,5.57c0.506,2.024-11.646,17.215-14.178,17.215
		c-1.012,0-1.519,1.012-1.519,1.519c0,0.506-1.013,1.519-2.025,1.519c-0.507,0-4.557,1.013-8.607,2.532
		c-8.607,3.037-11.646,4.05-16.708,3.037c-3.545,0-5.57-1.012-11.646-4.05c-6.582-3.038-11.646-10.127-16.708-21.266
		c-5.57-12.658-9.621-40.505-8.607-60.252c0.506-6.582,0.506-12.151,0-13.164c0-0.506-1.52-1.013-3.039-0.506
		c-1.518,0.506-3.543-0.507-4.557-1.52c-1.012-1.013-2.025-2.025-3.037-2.025c-11.646-2.025-8.102-49.619-3.545-66.327
		c4.051-15.696,13.164-37.468,20.76-50.126c6.582-11.139,20.252-26.834,27.341-32.404c13.164-10.126,40.505-7.088,51.138,5.063
		c4.557,5.063,10.127,13.671,10.127,15.696c0,1.013,0.506,2.025,1.012,3.038c1.52,1.519,4.051,9.113,6.076,18.733
		c1.013,3.544,2.025,14.683,3.038,25.315C1348.337,575.347,1345.805,611.802,1339.223,647.244z M1245.049,536.36
		c1.012-1.013,1.518-3.038,1.518-4.557c0-1.013,0.507-2.025,1.014-2.532c1.519-1.519,1.519-5.063,0-5.063
		c-1.014,0-2.025,2.531-3.038,5.063c-1.013,3.038-2.532,6.076-3.038,7.089s-1.013,3.038-1.52,4.557
		c-0.506,1.013-1.012,2.531-1.519,2.531s-1.013,2.025-1.519,4.558c-0.506,3.037-1.013,6.075-1.52,7.088
		c-1.519,3.545-4.051,10.127-4.051,12.658c0,1.013-0.506,3.038-1.012,4.557c-1.52,3.038-2.025,33.924-1.013,32.404
		c0.506-0.506,1.013-3.038,1.013-5.569c0-5.569,1.012-15.696,1.519-19.24C1233.402,570.283,1243.023,539.398,1245.049,536.36z
		 M1237.959,599.649c-0.506-1.012-0.506-0.506-0.506,2.025c0,2.025,0.506,3.038,0.506,2.025
		C1238.466,603.194,1238.466,601.169,1237.959,599.649z M1244.035,565.221c-1.012-1.013-5.569,19.746-5.569,26.328
		c0,5.569,0,5.569,1.013-2.025c1.013-4.557,2.025-11.646,3.038-15.695C1243.529,569.271,1244.035,565.221,1244.035,565.221z
		 M1259.225,543.955c-1.519,1.519-12.658,42.53-13.164,48.606c-0.506,6.582,0,4.051,7.595-24.81
		C1257.199,554.081,1259.731,543.448,1259.225,543.955z M1250.617,629.522c-2.531-1.519-3.037,2.531-2.531,20.253
		c0,13.671,0.506,17.215,1.52,15.695c1.012-1.013,1.519-6.075,1.519-12.657c-0.507-6.076,0-13.671,0-16.709
		C1251.631,632.561,1251.631,630.029,1250.617,629.522z M1250.617,674.078c-2.025-2.531-2.531-2.025-1.012,1.013
		c0.506,1.013,1.012,1.52,1.519,1.52C1251.631,676.104,1251.631,675.091,1250.617,674.078z M1250.617,521.677
		c1.014,0,1.52-1.013,1.52-2.025s0.506-2.531,1.519-3.544c2.025-2.025,2.532-5.063,0.507-5.063c-0.507,0-1.013,0.507-1.013,1.52
		c0,1.519-0.507,2.531-1.013,2.531C1250.617,515.602,1249.099,521.677,1250.617,521.677z M1251.124,680.66
		c-0.507-1.012-1.013-0.506-1.013,1.013c0,1.52,0.506,2.532,1.013,2.025C1251.631,683.192,1251.124,682.18,1251.124,680.66z
		 M1318.971,594.08c1.519-24.81,1.519-33.923-0.507-54.176c-1.519-15.189-2.531-20.253-6.075-29.873
		c-5.57-15.189-9.114-20.759-13.164-20.252c-4.558,1.013-15.189,11.646-24.811,29.872c-1.012,2.532-8.101,16.202-12.151,27.848
		c-4.05,12.151-5.063,17.722-1.519,10.633c1.013-2.531,2.531-3.544,4.051-3.544c3.037,0.506,2.531,1.519-1.014,9.113
		c-7.594,13.671-16.708,53.67-12.657,56.201c1.013,1.013,2.531-4.557,3.544-16.708c1.52-11.646,10.633-41.012,14.178-45.568
		c2.024-3.038,10.125-3.038,11.139-0.507c0.506,1.013,1.012,1.52,1.519,1.013c2.025-1.519,1.519,7.089,0,10.633
		c-2.025,3.038-5.569,27.341-7.595,46.075c-2.025,24.303,1.52,70.378,6.076,76.453c1.012,1.013,1.012,2.025,0.506,2.532
		c-1.013,1.519,4.557,10.126,6.582,9.113c0.506,0,3.038-4.051,5.57-8.101C1306.313,672.053,1315.933,633.573,1318.971,594.08z
		 M1263.781,598.638c-0.506-6.076-2.024,3.037-3.543,19.239c-1.52,19.747-1.52,39.493,0,44.557
		c0.506,1.519,1.012-6.582,1.012-18.228s0.507-26.329,1.013-32.404C1263.275,605.726,1263.781,599.649,1263.781,598.638z
		 M1261.25,668.509c0-0.506-0.506,0-0.506,2.025c0,1.519,0.506,2.531,1.013,1.519
		C1261.757,671.041,1261.757,669.521,1261.25,668.509z M1263.781,534.841c0.507-2.024,0.507-2.531-0.506-2.024
		c-1.013,0-1.519,1.519-2.025,3.544C1261.25,539.904,1263.275,538.892,1263.781,534.841z M1266.82,525.222
		c0,2.024,0.506,2.024,2.025-0.507c1.012-1.519,1.518-3.038,1.518-4.051s0.507-2.025,1.52-2.531s2.025-1.519,2.025-2.025
		c0-1.013-1.52,0-3.545,2.531C1268.339,520.664,1266.82,523.702,1266.82,525.222z M1271.377,615.346
		c1.012-11.646,3.037-25.315,5.569-38.48c1.519-7.088,1.013-10.126-0.507-4.05c-2.025,5.569-6.076,32.91-7.088,44.556
		c-0.506,11.139-0.506,30.885,1.012,46.075c0,5.063,0.507-1.52,0.507-14.178C1270.87,637.117,1270.87,621.422,1271.377,615.346z
		 M1327.071,539.904c-0.506-1.519-1.013-3.038-0.506-4.051c0.506-2.024,0.506-2.024-1.013-0.506c-1.52,1.519-1.52,7.088-1.013,24.81
		c1.519,33.923-1.013,58.227-9.114,93.669c-3.037,12.657-3.037,12.657-1.519,11.139c0.507-1.013,3.038-7.089,5.063-14.684
		c4.557-17.215,8.607-45.062,9.619-66.327c0-11.139-1.012-34.43-2.024-37.974c-0.507-1.013,0-2.532,0.506-3.038
		C1327.578,542.436,1328.084,541.424,1327.071,539.904z M1335.172,593.067c0.507-1.013,1.014-3.037,1.014-4.05
		c0-1.52,0-1.52-1.014,0c-0.506,1.013-1.012,3.037-1.012,4.05C1334.16,595.093,1334.16,595.093,1335.172,593.067z M1336.186,580.916
		c0.506,0,0.506-9.62,0-20.759c-0.507-11.646-1.014-20.759-1.014-19.746C1334.16,543.448,1335.172,580.916,1336.186,580.916z
		 M1338.211,636.611c0.506-1.52,1.012-3.545,1.012-4.558c0-1.012-0.506-1.012-1.012-1.012c-1.014,0.506-1.52,2.531-1.014,4.557
		C1337.197,639.143,1337.197,639.143,1338.211,636.611z M1340.236,622.435c0.506,0,1.519-4.558,2.025-10.633
		c0.506-6.076,0.506-11.14,0-11.646c0-0.507-0.507,2.531-1.014,6.582c0,4.051-1.012,9.113-1.519,11.646
		C1339.223,620.409,1339.729,622.435,1340.236,622.435z M1343.779,594.587c0.507-3.038,1.014-16.202,1.014-29.873
		c-0.507-13.671-1.014-24.303-1.014-23.797c-0.506,0.507-0.506,8.607-0.506,18.228c0,9.113,0,22.278,0,28.354
		C1342.768,596.612,1343.273,598.131,1343.779,594.587z"/>
	<path fill="#FFFFFF" d="M1538.205,325.732c0,6.076-1.012,16.708-1.519,23.797c-2.024,19.24-2.531,24.303-3.038,32.91
		c-0.506,4.051-1.519,12.658-2.025,18.734c-4.05,38.986-11.139,149.363-13.164,201.008c-1.519,45.063-2.025,55.188-2.531,88.099
		c-0.506,31.392,0,54.683,2.531,68.859l1.52,8.607c-6.076,3.038-21.771-4.557-23.797-8.607
		c-8.102-20.253-4.557-185.312-5.063-250.12l-6.075,25.821c-7.089,28.354-23.291,87.594-25.822,94.176
		c-2.532,5.569-4.558,14.683-3.545,14.683c0.506,0-0.506,1.013-1.519,2.532c-1.519,1.519-2.025,4.05-1.519,5.063
		c0.506,1.52,0,2.025-1.014,2.025c-1.519,0-2.025,1.52-2.025,4.051c0,3.038-1.012,5.063-2.531,6.076
		c-1.519,1.012-2.531,3.037-2.531,5.063c0,1.52-1.013,3.544-2.025,4.557s-1.52,2.025-1.52,3.038c0,2.532-13.67,20.759-15.695,20.759
		c-0.506,0-2.025,1.013-3.038,2.532c-1.519,1.519-7.089,4.557-12.151,7.088c-13.164,5.57-21.771,5.063-31.392-2.531
		c-11.646-8.607-16.202-23.797-18.228-55.188c-1.52-34.43,13.67-93.162,32.91-129.617c6.582-11.646,24.811-34.43,29.873-36.961
		c9.62-5.063,18.734-9.114,19.746-8.607c0.507,0.506,3.039,0.506,5.57-0.507c3.037-0.506,8.607-0.506,13.164,0.507
		c5.063,0.506,9.619,1.013,11.139,1.519c2.025,0,3.038-2.531,6.582-18.733c2.531-10.127,7.595-34.43,11.139-53.67
		c10.127-50.632,20.254-92.149,23.291-96.706c2.531-3.038,4.051-2.025,4.051,1.519c0,4.557,1.519,4.557,4.051,0.506
		c2.025-2.531,2.025-3.037,3.544-1.012c1.013,1.012,2.531,2.024,4.05,1.519c1.014,0,3.545,1.013,5.064,3.038
		C1537.699,314.087,1538.205,315.605,1538.205,325.732z M1389.349,548.512c-0.507,0-2.025,3.544-3.544,8.102
		c-1.014,4.557-3.039,10.632-4.557,13.67c-2.025,4.557-4.051,12.658-6.583,24.304c-4.05,18.228-6.582,42.53-6.582,59.745
		c0.507,11.139,0.507,10.633,2.025,9.62c0.507-0.506,1.519-3.038,2.025-5.569c0.507-3.038,0-6.076-0.507-6.582
		c-2.025-2.532,2.531-43.037,6.582-59.239c2.025-7.595,5.063-20.253,7.596-27.848
		C1390.361,550.537,1390.867,548.512,1389.349,548.512z M1371.121,669.016c0-1.013-0.506-1.52-1.013-1.52s-1.013,0.507-1.013,1.52
		c0,0.506,0.506,1.013,1.013,1.013S1371.121,669.521,1371.121,669.016z M1381.754,650.788l-1.013-10.633l-0.507,8.101
		c0,9.114,1.52,23.797,2.025,17.215C1382.766,662.939,1382.26,656.357,1381.754,650.788z M1382.26,630.535
		c-0.506-1.013-0.506,0-0.506,2.025s0,2.531,0.506,1.519S1382.766,631.548,1382.26,630.535z M1391.88,643.193
		c-1.013-5.569-1.519-4.557-1.519,5.569c0,6.076,0.506,13.164,1.012,16.202c0.507,3.544,1.014,2.531,1.014-6.076
		C1392.893,653.319,1392.387,646.231,1391.88,643.193z M1396.943,536.36c0.506,0,1.013-2.025,1.013-4.051
		c0-3.544-0.507-3.544-3.038,2.531c-1.52,3.545-3.545,8.102-4.051,9.62c-0.506,3.545-0.506,3.545,1.52,0.507
		c1.012-1.52,2.025-4.051,2.531-5.569C1395.424,537.373,1395.931,536.36,1396.943,536.36z M1393.905,616.864v-6.075l-1.013,6.075
		c-0.506,3.545-1.013,9.114-1.013,12.658v6.582l1.013-6.582C1393.398,625.979,1393.905,620.409,1393.905,616.864z M1461.752,529.778
		c4.051-14.684,7.595-28.354,8.102-30.379c3.543-13.671-22.279-17.215-48.101,45.568c-2.025,5.569-4.558,10.126-5.569,9.62
		c-0.507-0.507-0.507,0,0,1.013c0.506,0.506-2.025,10.126-5.063,20.759c-8.607,30.379-11.14,44.556-11.14,71.896
		c0,12.658-0.506,22.278-1.012,20.76c-1.52-3.545-1.013-30.379,0.506-44.05c1.52-16.202,9.113-51.138,12.152-56.201
		c0.506-0.507,1.519-3.544,2.025-6.076c1.012-4.557,0.506-5.063-1.014-1.519c-4.557,10.126-13.67,45.063-16.201,65.821
		c-2.025,15.695-1.014,41.012,2.024,47.087c1.519,3.545,2.532,6.582,3.038,11.646c0,0,3.038-2.531,6.076-6.582
		c3.544-4.051,9.113-13.671,12.658-20.759C1431.879,633.573,1446.057,589.018,1461.752,529.778z M1416.689,551.043
		c0,0.507,2.025-2.024,4.051-6.582c2.025-4.05,3.544-7.595,3.037-8.101C1423.271,535.854,1416.689,549.019,1416.689,551.043z
		 M1434.41,642.687c0-2.025,0-2.025-1.012-0.506c-1.52,3.038-1.52,4.557,0,3.544C1433.904,645.219,1434.41,643.699,1434.41,642.687z
		 M1465.296,547.499c1.013-4.557,4.051-15.695,6.582-25.822c2.532-9.62,4.051-18.228,3.544-19.24c-0.506-0.506,0-2.531,1.014-3.544
		c0.506-1.013,1.012-2.025,0-2.025c-1.52,0-4.051,5.569-5.57,13.164c-0.506,4.051-2.025,11.14-3.544,16.203
		c-5.569,21.771-10.633,41.011-14.177,52.656c-2.025,6.582-5.063,17.215-6.582,22.784c-1.52,6.076-4.557,14.684-6.076,19.747
		c-3.544,11.139-5.569,17.721-3.544,15.695c0.507-0.506,1.519-3.544,2.531-6.075c1.013-2.532,2.532-7.089,4.051-10.633
		C1446.563,612.814,1460.739,564.714,1465.296,547.499z M1454.157,632.054c0-1.012-0.507,0-0.507,2.025
		c0,1.52,0.507,2.532,0.507,1.52C1454.663,634.586,1454.663,633.066,1454.157,632.054z M1460.739,614.333
		c0-1.013,0-1.519-0.507-1.519c0,0-0.506,0.506-1.012,1.519c-0.507,0.507-0.507,1.519,0.506,1.519
		C1460.232,615.852,1460.739,614.84,1460.739,614.333z M1464.789,601.169c0-0.507-0.506-1.013-1.012-1.013
		c-1.013,0-1.52,2.025-1.52,4.051c0,3.544,0.507,3.544,1.52,1.013C1464.283,603.7,1464.789,602.182,1464.789,601.169z
		 M1473.396,569.777c0-2.532-8.607,24.303-8.607,27.341c0,2.531,2.532-3.544,5.57-14.177
		C1472.385,576.865,1473.396,571.296,1473.396,569.777z M1468.334,559.65c-0.506-1.012-1.013-1.012-1.013,1.013
		c0,1.013,0.507,2.025,1.013,1.52C1468.334,561.676,1468.334,560.663,1468.334,559.65z M1478.461,550.031
		c0-2.532-4.558,11.139-4.558,14.177c-0.507,4.557,1.013,2.531,3.038-5.063C1477.954,555.094,1478.461,551.043,1478.461,550.031z
		 M1478.967,517.12c-0.506,1.013-2.025,3.544-2.025,5.569c-0.506,2.532-0.506,3.545,0,3.038c0.506-0.506,1.013-1.519,1.013-2.531
		c0.507-1.013,1.013-3.038,1.519-4.558C1479.979,516.614,1479.979,516.107,1478.967,517.12z M1481.498,534.841
		c-0.506,1.013-1.52,4.558-2.025,7.595c-0.506,3.545-0.506,5.063,0.506,3.545c0.507-1.013,1.52-4.557,2.025-7.595
		C1482.511,534.335,1482.004,533.322,1481.498,534.841z M1480.992,479.146c0.506-0.507,2.025-5.569,3.037-10.633
		c1.52-5.569,3.545-15.189,4.557-21.266c1.52-6.075,3.039-14.177,4.051-18.227c0.507-3.545,2.532-12.152,3.545-18.734
		c1.519-6.582,4.051-19.24,5.063-28.354c1.52-9.62,3.038-18.228,3.545-19.24c0.506-1.519,0-2.531-1.014-2.531
		c-0.506,0-1.012,1.013-1.012,2.531c0,2.025-1.013,7.595-5.57,29.366c-1.012,4.558-3.037,13.671-4.557,20.253
		c-4.557,24.304-11.645,56.201-12.658,59.745C1478.461,476.108,1479.473,481.172,1480.992,479.146z M1479.979,512.563
		c1.014-0.507,1.52-2.025,1.014-3.038c-0.507-1.013-1.014-0.506-1.52,1.519C1478.967,513.069,1479.473,513.576,1479.979,512.563z
		 M1491.118,492.311c-0.507,0-1.013,2.025-1.013,3.544c0,3.038-6.076,27.342-7.595,30.38c-0.507,1.012-0.507,3.037-0.507,4.05
		c1.014,3.545,2.532-0.506,6.582-19.746C1493.144,490.285,1493.144,490.792,1491.118,492.311z M1493.65,451.299
		c-0.507-0.506-6.076,22.784-7.089,29.366c-1.013,7.595,2.024-2.531,4.557-14.683C1492.637,458.388,1493.65,451.806,1493.65,451.299
		z M1504.282,761.671c-4.05-11.645-4.557-30.885-4.557-104.808c0-63.796,1.013-119.997,2.532-156.451
		c1.518-37.468,1.518-50.126,1.012-49.113c-0.506,0.507-1.012,4.557-1.519,9.62c0,5.063-1.013,13.164-1.519,18.733
		c-2.025,11.646-2.025,14.684-3.039,79.998c-1.519,64.303-1.519,156.959,0,176.199c0,7.595,1.52,17.215,2.532,21.265
		C1500.232,759.646,1502.258,760.659,1504.282,761.671z M1504.789,430.033c-0.507-1.012-0.507,0-0.507,2.532
		c0,3.038,0,4.051,0.507,2.531C1505.295,433.578,1505.295,431.553,1504.789,430.033z M1505.295,424.464
		c0,1.52,0.506,2.532,0.506,1.52c0.507-1.013,0.507-2.532,0-3.545C1505.801,421.426,1505.295,422.438,1505.295,424.464z
		 M1505.295,708.002c0,2.025,0.506,2.531,0.506,1.519c0.507-1.013,0.507-2.531,0-3.544
		C1505.801,704.964,1505.295,705.977,1505.295,708.002z M1508.333,744.457c-0.507-6.076-1.519-11.14-2.025-11.14
		c-1.519,0-0.507,17.215,1.013,21.266S1508.84,756.102,1508.333,744.457z M1506.308,718.635c-0.507-2.532-0.507-0.507-0.507,4.05
		c0,4.558,0,6.582,0.507,4.558C1506.308,725.217,1506.308,721.166,1506.308,718.635z M1509.852,502.437
		c-0.506,7.089,0,10.633,0.507,9.114c0.507-1.52,1.013-7.089,1.013-12.151C1511.371,486.234,1510.865,487.754,1509.852,502.437z
		 M1511.877,488.26c0.506,0,1.013-7.088,1.52-15.695c0.506-8.607,2.025-30.379,4.051-49.113c4.557-49.112,4.557-50.632,2.024-37.467
		c-1.519,9.62-4.05,35.441-7.595,75.441C1510.865,474.59,1510.865,489.779,1511.877,488.26z M1515.422,746.481
		c-0.507-4.05-0.507-8.607-1.014-10.632c0-2.025,0-10.633,0-19.24c-0.506-8.607-1.012-15.696-1.519-15.189
		c-1.013,0.506-0.507,46.074,0.507,50.632C1514.408,758.127,1515.928,754.583,1515.422,746.481z M1513.902,681.673l-0.506-17.721
		l-0.507,14.684c-0.507,13.67-0.507,20.759,0.507,20.759C1513.902,699.395,1513.902,691.293,1513.902,681.673z M1513.902,655.345
		c0.506-4.557,0.506-9.62,0-11.139c-0.506-1.52-1.013,2.025-1.013,8.607l0.507,11.139L1513.902,655.345z M1516.434,562.183
		c-0.506,0.506-1.012,17.215-1.519,36.961c-0.507,34.936,0,26.328,2.025-21.266C1517.447,568.258,1516.94,561.17,1516.434,562.183z
		 M1517.447,543.955c-0.507-2.531-0.507-0.507-0.507,4.557s0,7.089,0.507,4.557C1517.953,550.537,1517.953,546.486,1517.447,543.955
		z M1518.966,522.689c-0.507-3.038-0.507-1.013-0.507,4.051c0,5.569,0,8.101,0,5.569
		C1518.966,529.778,1518.966,525.222,1518.966,522.689z M1527.573,401.174c-0.507,5.569-1.013,10.633-1.519,12.151
		c0,1.013-1.014,7.089-1.52,13.164c0,6.076-1.013,13.671-1.013,17.215c-0.507,3.544-1.013,9.114-1.013,12.151
		c-1.013,14.177-3.544,54.176-3.544,54.683c0,0.506,0,1.519,0,2.531c0.506,2.532,2.531-15.189,4.557-39.999
		c1.013-13.164,2.025-25.315,2.025-26.328s0.507-9.114,1.013-17.721c1.013-8.102,1.519-17.215,2.025-20.253
		c0-2.532,0.506-10.127,1.012-16.709C1530.611,377.883,1528.586,385.478,1527.573,401.174z M1531.623,361.681
		c-1.519,7.595-2.531,18.733-1.012,17.215c0.506-1.013,1.012-6.076,1.519-11.646C1532.637,359.149,1532.637,357.63,1531.623,361.681
		z"/>
</g>
</svg>
